<svg width="1080" height="597" viewBox="0 0 1080 597" fill="none" xmlns="http://www.w3.org/2000/svg">
<path d="M726.208 596.589H353.792V75.0469H726.208V596.589Z" fill="#48CCD1"/>
<path d="M353.792 596.589H0V298.562H353.792V596.589Z" fill="#7BD4F1"/>
<path d="M1080 596.589H726.208V298.562H1080V596.589Z" fill="#7BD4F1"/>
<path d="M353.792 298.563H0V224.057H353.792V298.563Z" fill="#00C2CB"/>
<path d="M1080 298.563H726.208V224.057H1080V298.563Z" fill="#00C2CB"/>
<path d="M726.208 75.0469H353.792V0.541656H726.208V75.0469Z" fill="#00C2CB"/>
<path d="M492.693 186.5C502.193 182.833 511.443 178.167 520.443 172.5C529.443 166.667 537.693 159.417 545.193 150.75H561.693V324H538.443V183C536.443 184.833 533.943 186.75 530.943 188.75C528.11 190.75 524.943 192.667 521.443 194.5C518.11 196.333 514.527 198.083 510.693 199.75C507.027 201.417 503.443 202.833 499.943 204L492.693 186.5Z" fill="#F5F5F5"/>
<path d="M213.955 416.8C213.955 421.6 212.955 426.267 210.955 430.8C209.088 435.2 206.555 439.6 203.355 444C200.155 448.267 196.555 452.533 192.555 456.8C188.555 460.933 184.555 465 180.555 469C178.288 471.267 175.621 473.933 172.555 477C169.621 480.067 166.821 483.267 164.155 486.6C161.488 489.933 159.221 493.133 157.355 496.2C155.621 499.267 154.755 501.933 154.755 504.2H218.555V520H134.555C134.421 519.2 134.355 518.4 134.355 517.6C134.355 516.8 134.355 516.067 134.355 515.4C134.355 509.133 135.355 503.333 137.355 498C139.488 492.533 142.221 487.4 145.555 482.6C148.888 477.8 152.621 473.267 156.755 469C160.888 464.733 164.955 460.6 168.955 456.6C172.288 453.4 175.421 450.267 178.355 447.2C181.421 444 184.088 440.867 186.355 437.8C188.755 434.6 190.621 431.333 191.955 428C193.421 424.667 194.155 421.133 194.155 417.4C194.155 413.4 193.488 410 192.155 407.2C190.955 404.4 189.288 402.067 187.155 400.2C185.021 398.333 182.488 397 179.555 396.2C176.755 395.267 173.755 394.8 170.555 394.8C166.688 394.8 163.155 395.333 159.955 396.4C156.755 397.467 153.888 398.733 151.355 400.2C148.821 401.533 146.688 403 144.955 404.6C143.221 406.067 141.888 407.2 140.955 408L131.755 394.8C132.955 393.467 134.755 391.867 137.155 390C139.555 388 142.421 386.133 145.755 384.4C149.088 382.667 152.821 381.2 156.955 380C161.088 378.8 165.555 378.2 170.355 378.2C184.888 378.2 195.755 381.6 202.955 388.4C210.288 395.067 213.955 404.533 213.955 416.8Z" fill="#F5F5F5"/>
<path d="M891.755 507.4C903.621 507.4 912.088 505.067 917.155 500.4C922.355 495.733 924.955 489.467 924.955 481.6C924.955 476.533 923.888 472.267 921.755 468.8C919.621 465.333 916.821 462.6 913.355 460.6C909.888 458.467 905.821 457 901.155 456.2C896.621 455.267 891.955 454.8 887.155 454.8H882.355V439.6H888.955C892.288 439.6 895.688 439.267 899.155 438.6C902.755 437.933 906.021 436.733 908.955 435C911.888 433.267 914.288 430.933 916.155 428C918.021 424.933 918.955 421.133 918.955 416.6C918.955 412.867 918.288 409.667 916.955 407C915.621 404.333 913.821 402.133 911.555 400.4C909.421 398.667 906.888 397.467 903.955 396.8C901.155 396 898.155 395.6 894.955 395.6C888.555 395.6 883.088 396.533 878.555 398.4C874.155 400.267 870.421 402.2 867.355 404.2L860.155 390C861.755 388.933 863.755 387.8 866.155 386.6C868.688 385.267 871.488 384.067 874.555 383C877.621 381.933 880.888 381.067 884.355 380.4C887.955 379.6 891.688 379.2 895.555 379.2C902.888 379.2 909.221 380.133 914.555 382C919.888 383.733 924.288 386.267 927.755 389.6C931.221 392.8 933.821 396.667 935.555 401.2C937.288 405.6 938.155 410.4 938.155 415.6C938.155 422.8 936.088 429 931.955 434.2C927.821 439.267 922.821 443.133 916.955 445.8C920.555 446.867 924.021 448.4 927.355 450.4C930.688 452.4 933.555 454.933 935.955 458C938.488 461.067 940.488 464.6 941.955 468.6C943.555 472.6 944.355 477.067 944.355 482C944.355 488 943.288 493.6 941.155 498.8C939.155 503.867 935.955 508.267 931.555 512C927.288 515.733 921.888 518.667 915.355 520.8C908.821 522.933 901.088 524 892.155 524C888.688 524 885.088 523.733 881.355 523.2C877.755 522.667 874.355 522 871.155 521.2C867.955 520.4 865.155 519.6 862.755 518.8C860.355 518 858.621 517.333 857.555 516.8L861.155 500.6C863.421 501.667 867.155 503.067 872.355 504.8C877.688 506.533 884.155 507.4 891.755 507.4Z" fill="#F5F5F5"/>
</svg>
