<svg width="838" height="889" viewBox="0 0 838 889" fill="none" xmlns="http://www.w3.org/2000/svg">
<path d="M825.287 382.042C825.287 592.552 654.641 763.198 444.141 763.198C233.646 763.198 63 592.552 63 382.042C63 171.526 233.646 0.869751 444.141 0.869751C654.641 0.869751 825.287 171.526 825.287 382.042Z" fill="#7BD4F1"/>
<path d="M536.922 699.703C536.922 699.703 661.422 718.781 675.865 629.401C690.323 540.01 543.349 547.432 503.271 552.87C463.193 558.313 536.922 699.703 536.922 699.703Z" fill="#DE5681"/>
<path d="M536.922 699.703L535.354 709.911C535.729 709.964 547.333 711.734 564.063 711.734C573.859 711.734 585.427 711.125 597.573 709.156C615.766 706.188 635.385 700.224 652.031 688.036C660.339 681.948 667.849 674.26 673.76 664.766C679.677 655.281 683.969 644.026 686.063 631.042C686.807 626.38 687.182 621.865 687.182 617.531C687.193 609.391 685.865 601.807 683.328 594.922C678.911 582.839 670.854 573.161 661.047 565.828C653.682 560.302 645.318 555.99 636.396 552.563C623.005 547.422 608.349 544.24 593.615 542.281C578.88 540.333 564.063 539.641 550.448 539.641C530.193 539.641 512.63 541.182 501.88 542.641C498.396 543.099 494.958 544.313 492.021 546.302C489.828 547.781 487.943 549.656 486.474 551.714C484.26 554.797 482.943 558.193 482.12 561.635C481.323 565.083 481.016 568.615 481.016 572.276C481.026 578.25 481.844 584.583 483.177 591.271C485.516 602.948 489.479 615.677 494.083 628.391C501.005 647.432 509.391 666.375 516.068 680.615C522.75 694.859 527.714 704.385 527.766 704.484L530.182 709.125L535.354 709.911L536.922 699.703L546.073 694.932L545.958 694.708C544.703 692.271 533.427 670.354 522.583 644.474C517.151 631.542 511.844 617.604 507.943 604.776C505.984 598.359 504.401 592.219 503.313 586.672C502.219 581.135 501.656 576.177 501.667 572.276C501.656 570.094 501.833 568.245 502.125 566.859C502.323 565.807 502.589 565.021 502.833 564.495C503.208 563.698 503.432 563.536 503.526 563.453C503.635 563.391 503.76 563.24 504.667 563.104C514.385 561.771 531.281 560.281 550.448 560.281C563.552 560.281 577.766 560.974 591.547 562.849C601.885 564.229 611.99 566.286 621.182 569.135C635 573.406 646.646 579.495 654.375 587.286C658.26 591.182 661.229 595.464 663.297 600.37C665.349 605.281 666.531 610.87 666.542 617.531C666.542 620.693 666.266 624.089 665.682 627.75C663.391 641.75 658.292 652.193 651.448 660.484C646.297 666.703 640.078 671.719 633.104 675.781C622.641 681.885 610.453 685.771 598.307 688.068C586.172 690.38 574.125 691.089 564.063 691.089C556.422 691.089 549.938 690.677 545.406 690.271C543.135 690.068 541.359 689.865 540.177 689.729C539.583 689.656 539.135 689.589 538.849 689.547L538.536 689.505H538.484L538.359 690.313L538.484 689.505L538.359 690.313L538.484 689.505L536.922 699.703L546.073 694.932L536.922 699.703Z" fill="#B14264"/>
<path d="M467.599 588.802C467.599 588.802 461.078 745.5 548.937 765.099C583.812 769.708 550.089 635.724 575.87 561.432C601.661 487.135 458.276 501.307 467.599 588.802Z" fill="#DF6886"/>
<path d="M467.599 588.802L457.286 588.365C457.286 588.49 457.172 591.26 457.172 596.026C457.172 604.068 457.49 617.776 459.193 634.203C461.781 658.859 467.37 689.589 480.224 716.714C486.677 730.266 494.99 742.964 505.922 753.313C516.823 763.661 530.448 771.568 546.693 775.167L547.141 775.266L547.589 775.328C548.599 775.453 549.62 775.531 550.641 775.531C553.677 775.542 556.828 774.87 559.594 773.484C562.021 772.292 564.109 770.625 565.792 768.771C568.729 765.5 570.526 761.786 571.88 757.859C573.88 751.964 574.901 745.37 575.552 737.943C576.188 730.521 576.38 722.292 576.38 713.417C576.38 694.708 575.484 673.12 575.484 651.245C575.484 635.641 575.943 619.906 577.458 605.12C578.969 590.344 581.552 576.516 585.62 564.818C588.068 557.781 589.302 551.104 589.302 544.802C589.313 538.073 587.854 531.75 585.057 526.302C582.969 522.203 580.161 518.615 576.891 515.646C571.984 511.161 566.089 508.057 559.786 506.042C553.474 504.042 546.703 503.125 539.76 503.125C530.469 503.125 520.839 504.776 511.469 508C497.438 512.833 483.932 521.224 473.714 533.443C468.615 539.542 464.365 546.615 461.427 554.552C458.469 562.484 456.839 571.276 456.839 580.729C456.839 583.724 457 586.776 457.339 589.906L467.599 588.802L457.286 588.365L467.599 588.802L477.875 587.693C477.609 585.286 477.479 582.969 477.479 580.729C477.5 571.276 479.609 563.271 483.167 556.323C488.484 545.922 497.245 537.766 507.552 532.188C517.813 526.609 529.531 523.745 539.76 523.766C544.297 523.766 548.521 524.323 552.172 525.323C554.922 526.089 557.349 527.099 559.391 528.292C562.469 530.089 564.661 532.24 566.182 534.797C567.682 537.37 568.63 540.479 568.651 544.802C568.651 548.38 567.938 552.786 566.12 558.047C561.307 571.906 558.542 587.182 556.922 603.01C555.302 618.839 554.844 635.234 554.844 651.245C554.844 673.656 555.74 695.359 555.74 713.417C555.74 720.854 555.578 727.677 555.177 733.599C554.88 738.036 554.422 741.974 553.823 745.234C553.375 747.672 552.854 749.724 552.302 751.302C551.484 753.698 550.589 754.854 550.396 754.995L550.354 755.026L550.651 755.401L550.417 754.995L550.354 755.026L550.651 755.401L550.417 754.995L550.917 755.891L550.672 754.891L550.417 754.995L550.917 755.891L550.672 754.891L550.781 755.323L550.729 754.88L550.672 754.891L550.781 755.323L550.729 754.88L550.641 754.891L550.292 754.854L548.938 765.099L551.182 755.016C542.88 753.161 535.688 749.948 529.224 745.625C517.964 738.078 508.938 726.953 501.813 713.661C491.104 693.766 484.943 669.214 481.651 647.245C478.344 625.25 477.807 605.844 477.823 596.026C477.823 593.802 477.844 592.078 477.875 590.917C477.885 590.333 477.896 589.896 477.906 589.62L477.917 589.313V589.234L477.948 588.448L477.875 587.693L467.599 588.802Z" fill="#B14264"/>
<path d="M220.219 451.781C220.219 451.781 84.125 402.219 92.4167 318.068C100.698 233.917 248.469 87.7031 443.755 107.203C639.036 126.719 891.307 313.203 759.693 543.651C679.891 657.812 597.766 558.057 362.156 566.87C229.042 571.854 208.625 492.875 220.219 451.781Z" fill="#F591AA"/>
<path d="M220.219 451.781L223.74 442.083C223.208 441.906 191.766 430.26 161.182 409.438C145.885 399.057 130.865 386.391 119.984 372.146C114.536 365.026 110.12 357.542 107.083 349.771C104.052 341.99 102.37 333.938 102.37 325.432C102.37 323.339 102.474 321.229 102.688 319.089V319.078C103.526 310.469 106.115 300.672 110.469 290.219C118.068 271.911 131.047 251.63 148.641 231.724C175.021 201.823 211.745 172.74 255.943 151.234C300.146 129.719 351.786 115.766 408.313 115.755C419.594 115.755 431.068 116.318 442.724 117.479C481.016 121.297 521.849 131.786 561.411 147.964C620.792 172.214 677.281 209.323 718.542 255.333C739.182 278.349 756.021 303.557 767.677 330.479C779.333 357.411 785.839 386.036 785.839 416.167C785.828 454.531 775.313 495.443 750.719 538.531L759.693 543.651L751.219 537.734C744.172 547.828 737.203 556.01 730.26 562.604C719.818 572.49 709.505 578.802 698.542 582.818C687.568 586.818 675.802 588.521 662.484 588.521C648.427 588.521 632.714 586.594 615 583.583C588.443 579.083 557.432 572.182 520.719 566.401C484.005 560.62 441.552 555.979 391.958 555.979C382.177 555.979 372.109 556.162 361.76 556.557C357.854 556.693 354.042 556.766 350.349 556.766C325.406 556.766 305.281 553.521 289.203 548.26C265.083 540.323 250.073 528.047 240.729 514.594C231.406 501.125 227.755 486.135 227.745 472.714C227.745 466.078 228.646 459.865 230.146 454.594L232.755 445.365L223.74 442.083L220.219 451.781L210.276 448.974C208.24 456.193 207.104 464.219 207.104 472.714C207.104 484.135 209.167 496.443 214.104 508.537C217.802 517.604 223.125 526.547 230.339 534.807C241.156 547.198 256.219 557.948 276.005 565.484C295.797 573.037 320.286 577.422 350.349 577.422C354.307 577.422 358.375 577.333 362.536 577.188C372.62 576.813 382.422 576.63 391.958 576.63C456.38 576.63 508.245 584.635 551.813 592.729C573.594 596.771 593.318 600.839 611.552 603.938C629.786 607.037 646.552 609.167 662.484 609.177C672.526 609.177 682.245 608.313 691.688 606.25C705.844 603.172 719.349 597.307 732.031 588.01C744.729 578.719 756.599 566.094 768.146 549.573L768.411 549.188L768.656 548.776C794.802 503.021 806.5 458.354 806.49 416.167C806.5 371.995 793.693 330.724 772.193 293.766C739.906 238.292 688.245 192.292 629.698 158.474C571.109 124.672 505.583 103.031 444.781 96.932C432.432 95.698 420.276 95.109 408.313 95.109C362.646 95.109 319.979 103.714 281.604 117.859C224.016 139.109 176.073 172.76 141.521 208.953C124.245 227.063 110.307 245.807 100.208 264.13C90.1146 282.458 83.8021 300.354 82.1302 317.057L82.1406 317.036C81.8542 319.875 81.7188 322.677 81.7188 325.432C81.7188 336.781 84.0156 347.557 87.9427 357.521C94.8333 374.979 106.552 389.979 119.922 402.802C140.021 422.021 164.042 436.495 183.13 446.365C202.219 456.214 216.385 461.375 216.672 461.479L220.219 451.781L210.276 448.974L220.219 451.781Z" fill="#B14264"/>
<path d="M314.276 489L314.359 488.99C316.448 488.745 354.339 484.411 402.156 484.411C431.495 484.411 464.557 486.052 495.203 491.161C510.521 493.714 525.234 497.146 538.526 501.583C551.813 506.031 563.682 511.516 573.349 518.042L573.422 518.083C576.318 520.01 579.734 521.865 583.609 523.661C589.422 526.354 596.245 528.885 603.599 530.792C610.953 532.688 618.802 533.964 626.698 533.974C633.063 533.974 639.505 533.146 645.656 530.859C651.786 528.589 657.667 524.714 662.094 519.031L645.828 506.307C643.953 508.682 641.646 510.292 638.438 511.505C635.266 512.698 631.224 513.333 626.698 513.323C619.224 513.344 610.552 511.589 602.854 509.068C599.01 507.813 595.391 506.375 592.286 504.927C589.188 503.5 586.568 502.042 584.823 500.87L584.885 500.922C573.198 493.047 559.677 486.901 545.073 482.005C523.167 474.682 498.76 470.167 474.135 467.432C449.536 464.698 424.734 463.771 402.156 463.771C351.531 463.771 312.094 468.464 311.828 468.495L314.276 489Z" fill="#B14264"/>
<path d="M229.615 456.052L224.667 453.807L229.583 456.094L229.615 456.052L224.667 453.807L229.583 456.094C229.583 456.094 229.693 455.891 229.901 455.469C231.562 452.286 239.74 437.932 258.38 424.49C267.703 417.75 279.656 411.203 294.911 406.307C310.156 401.411 328.698 398.161 351.245 398.161C369 398.161 389.245 400.188 412.25 405.052L413.187 405.245L414.146 405.266C414.219 405.276 414.547 405.276 415.115 405.276C417.995 405.266 426.703 405.115 436.745 402.922C441.766 401.802 447.141 400.188 452.37 397.609C457.562 395.031 462.714 391.448 466.719 386.208C467.484 385.177 469.38 383.302 472.135 381.396C476.286 378.479 482.385 375.359 489.839 373.042C497.312 370.708 506.146 369.156 515.974 369.156C526.286 369.156 537.688 370.859 549.885 375.214C562.073 379.578 575.083 386.604 588.557 397.385L601.458 381.26C586.344 369.156 571.281 360.938 556.839 355.771C542.38 350.599 528.562 348.5 515.974 348.5C499.953 348.516 485.943 351.875 474.828 356.573C469.26 358.922 464.406 361.609 460.323 364.458C456.224 367.333 452.891 370.302 450.292 373.688C448.833 375.635 446.417 377.521 443.214 379.099C438.432 381.484 432.099 383.016 426.641 383.771C421.167 384.547 416.583 384.635 415.115 384.62H414.625L414.578 386.635L414.635 384.62H414.625L414.578 386.635L414.635 384.62L414.391 394.948L416.516 384.844C392.245 379.714 370.573 377.51 351.245 377.51C324.661 377.51 302.51 381.682 284.307 388.094C256.984 397.672 238.641 412.234 227.219 424.51C215.776 436.786 211.167 446.75 210.807 447.516L229.615 456.052Z" fill="#B14264"/>
<path d="M567.823 515.432L568.448 509.385L567.781 515.432H567.823L568.448 509.385L567.781 515.432L567.865 515.443C568.375 515.505 571.089 515.891 574.797 516.984C580.385 518.625 588.078 521.906 594.219 527.62C597.307 530.495 600.068 533.932 602.203 538.255C604.354 542.578 605.922 547.807 606.453 554.427L627.042 552.807C626.057 540.141 621.953 529.656 616.255 521.604C611.99 515.547 606.911 510.854 601.792 507.255C594.094 501.859 586.333 498.859 580.427 497.12C574.516 495.396 570.422 494.953 569.964 494.896L567.823 515.432Z" fill="#B14264"/>
<path d="M407.406 388.943L401.688 390.573L407.417 388.974L407.406 388.943L401.688 390.573L407.417 388.974L407.344 388.677C406.958 387.219 405.427 380.547 405.438 372.135C405.438 367.432 405.906 362.182 407.214 356.984C408.203 353.089 409.651 349.214 411.708 345.521C414.802 339.974 419.208 334.802 425.948 330.323C432.677 325.859 441.854 322.083 454.521 319.953L451.104 299.589C437.766 301.823 426.745 305.792 417.797 311.073C411.078 315.031 405.542 319.74 401.115 324.849C394.453 332.516 390.344 341.031 387.938 349.224C385.531 357.422 384.786 365.312 384.786 372.135C384.797 384.932 387.391 394.01 387.552 394.62L407.406 388.943Z" fill="#B14264"/>
<path d="M612.49 469.297C612.745 469.255 621.896 467.771 635.672 464.177C656.333 458.734 687.344 448.677 714.464 431.057C728.005 422.224 740.63 411.448 750.266 398.12C759.896 384.823 766.432 368.823 767.359 350.536L746.74 349.469C746.24 358.839 743.927 367.208 740.193 374.938C733.667 388.422 722.557 400.026 709.078 409.724C688.927 424.276 663.755 434.271 643.729 440.417C633.724 443.49 625.005 445.63 618.833 446.995C615.745 447.677 613.297 448.167 611.635 448.474C610.807 448.63 610.177 448.75 609.76 448.813L609.307 448.901L609.208 448.911H609.198L612.49 469.307" fill="#B14264"/>
<path d="M723.896 536.276H723.833H723.896H723.833H723.896C723.896 535.901 724.516 523.276 727.875 510.729C729.516 504.469 731.891 498.271 734.724 493.844C736.125 491.63 737.63 489.865 739.089 488.625C740.557 487.37 741.927 486.635 743.417 486.198L755.172 482.859L722.542 414.396L703.906 423.286L731.281 480.708L740.599 476.266L737.776 466.333C733.052 467.677 728.911 470.115 725.516 473.063C719.542 478.26 715.625 484.849 712.656 491.589C708.26 501.708 706.047 512.453 704.766 520.849C703.51 529.219 703.276 535.214 703.266 535.479L723.906 536.276" fill="#B14264"/>
<path d="M562.214 294.542C562.859 294.734 573.411 298.245 587.771 298.276C597.266 298.266 608.594 296.703 619.536 291.005C624.995 288.167 630.307 284.271 635.042 279.156C639.781 274.047 643.911 267.734 647.167 260.198C651.938 249.141 653.948 239.76 653.948 231.625C653.958 226.208 653.021 221.385 651.609 217.307C649.479 211.187 646.307 206.771 644.271 203.917C643.25 202.5 642.536 201.458 642.349 201.099L642.292 201L642.281 200.979L638.271 202.844H642.615C642.615 201.651 642.281 200.979 642.281 200.979L638.271 202.844H642.615H636.469L642.26 204.896C642.484 204.292 642.625 203.51 642.615 202.844H636.469L642.26 204.896L638.464 203.547L641.453 206.354C641.484 206.323 641.932 205.844 642.26 204.896L638.464 203.547L641.453 206.354H641.464C641.505 206.312 641.844 205.995 642.516 205.557L631.031 188.396C628.797 189.896 626.781 191.526 625.016 193.88C624.135 195.062 623.344 196.443 622.802 198C622.25 199.552 621.964 201.245 621.964 202.844C621.974 205.302 622.578 207.385 623.25 208.995C624.484 211.828 625.828 213.583 626.984 215.245C628.745 217.682 630.245 219.792 631.37 222.26C632.469 224.729 633.286 227.495 633.297 231.625C633.297 236.323 632.151 242.88 628.208 252.026C625.802 257.578 622.964 261.807 619.896 265.13C615.286 270.078 610.115 273.104 604.568 275.016C599.052 276.932 593.177 277.625 587.771 277.625C582.333 277.625 577.391 276.922 573.911 276.219C572.167 275.87 570.781 275.531 569.875 275.286C569.427 275.156 569.089 275.062 568.885 274.995L568.693 274.943L568.672 274.932L566.969 280.172L568.708 274.943L568.672 274.932L566.969 280.172L568.708 274.943L562.214 294.542Z" fill="#B14264"/>
<path d="M634.969 266.078L636.448 260.635L634.938 266.062L634.969 266.078L636.448 260.635L634.938 266.062C634.938 266.062 635.068 266.099 635.323 266.172C637.224 266.755 646.104 269.708 656.13 276.208C661.146 279.469 666.448 283.589 671.375 288.708C676.302 293.828 680.87 299.937 684.49 307.229L691.589 321.557L701.724 309.177L698.656 306.677L701.714 309.187L701.724 309.177L698.656 306.677L701.714 309.187C701.766 309.125 707.057 302.771 714.583 296.776C718.339 293.786 722.63 290.901 726.917 288.88C731.208 286.844 735.411 285.729 739.063 285.74C741.302 285.74 743.365 286.109 745.484 286.984L753.339 267.885C748.615 265.937 743.729 265.083 739.063 265.083C731.24 265.094 724.089 267.344 717.797 270.354C708.344 274.901 700.573 281.255 694.953 286.484C689.354 291.708 685.948 295.849 685.745 296.104L693.74 302.641L702.979 298.052C697.932 287.885 691.474 279.542 684.693 272.792C674.495 262.682 663.615 256.12 655.214 252.026C646.818 247.927 640.875 246.276 640.396 246.146L634.969 266.078Z" fill="#B14264"/>
<path d="M692.641 406.094C692.995 405.677 698.688 398.865 704.448 387.635C710.188 376.406 716.083 360.661 716.104 342.318C716.135 328.073 712.37 312.286 702.385 297L685.083 308.286C692.813 320.198 695.432 331.568 695.464 342.318C695.484 356.094 690.865 368.911 686.073 378.224C683.693 382.875 681.307 386.625 679.552 389.167C678.667 390.432 677.953 391.391 677.474 392.021C677.229 392.328 677.047 392.552 676.943 392.682L676.833 392.818L676.823 392.828L681.125 396.406L676.844 392.807L676.823 392.828L681.125 396.406L676.844 392.807L692.641 406.094Z" fill="#B14264"/>
<path d="M502.109 368.932C502.687 368.453 512.396 360.573 522.167 345.641C527.042 338.167 531.927 328.917 535.599 317.974C539.281 307.016 541.734 294.359 541.734 280.214C541.734 267.292 539.687 253.151 534.792 238.026C532.385 230.594 531.406 224.156 531.406 218.557C531.406 212.839 532.417 207.974 534.12 203.62C535.62 199.807 537.687 196.38 540.229 193.219C544.672 187.693 550.672 183.01 557.328 179.198C567.302 173.474 578.667 169.797 587.443 167.672C591.818 166.604 595.552 165.911 598.151 165.5C599.448 165.286 600.458 165.146 601.12 165.062C601.458 165.021 601.703 164.99 601.854 164.969L602.016 164.953L602.047 164.943L601.589 160.677L602.026 164.943H602.047L601.589 160.677L602.026 164.943L599.917 144.411C599.62 144.443 594.266 145.005 586.281 146.75C580.286 148.062 572.812 150.042 564.865 153.01C552.943 157.495 539.849 164.135 529.214 174.651C523.911 179.911 519.25 186.193 515.948 193.557C512.651 200.917 510.745 209.349 510.755 218.557C510.755 226.583 512.172 235.193 515.141 244.38C519.401 257.547 521.083 269.474 521.083 280.214C521.083 291.974 519.068 302.354 516.036 311.391C511.49 324.943 504.615 335.474 498.906 342.552C496.057 346.099 493.51 348.76 491.734 350.495C490.839 351.365 490.135 352.005 489.687 352.401L489.208 352.812L489.125 352.88H489.115L493.583 358.359L489.146 352.854L489.115 352.88L493.583 358.359L489.146 352.854L502.109 368.932Z" fill="#B14264"/>
<path d="M446.099 249.042L443.651 249.031L446.099 249.052V249.042L443.651 249.031L446.099 249.052C446.089 248.797 446.333 235.896 450.432 221.437C452.464 214.214 455.443 206.62 459.62 200.021C463.792 193.401 469.036 187.812 475.766 183.958C483.911 179.297 490.37 173.63 495.333 167.625C502.792 158.589 506.901 148.891 509.125 140.516C511.365 132.125 511.766 125.005 511.766 120.703C511.766 118.214 511.63 116.656 511.609 116.38L491.052 118.37C491.062 118.583 491.125 119.406 491.125 120.703C491.135 124.641 490.562 132.911 487.073 141.536C485.323 145.859 482.875 150.276 479.427 154.458C475.958 158.641 471.5 162.604 465.505 166.042C455.094 172.005 447.443 180.474 441.885 189.437C433.536 202.917 429.609 217.578 427.557 228.953C425.531 240.333 425.458 248.479 425.458 248.896L446.099 249.042Z" fill="#B14264"/>
<path d="M320.833 304.495L316.828 306.135L320.854 304.536L320.833 304.495L316.828 306.135L320.854 304.536C320.776 304.391 314.646 288.87 314.656 264.458C314.667 246.255 318.021 223.12 329.807 197.286C341.609 171.458 361.891 142.833 396.24 113.828L382.922 98.052C346.505 128.781 324.151 159.943 311.026 188.703C297.891 217.458 293.995 243.708 294.005 264.458C294.016 293.219 301.375 311.448 301.724 312.318L320.833 304.495Z" fill="#B14264"/>
<path d="M162.562 305.74L157.01 308.208L162.609 305.849L162.562 305.74L157.01 308.208L162.609 305.849L162.406 305.932L162.609 305.849L162.406 305.932L162.609 305.849C162.552 305.708 160.542 300.703 160.542 292.573C160.542 287.177 161.406 280.406 164.323 272.505C167.24 264.62 172.229 255.578 180.734 245.734C191.276 233.531 200.76 226.177 208.818 221.906C216.906 217.63 223.547 216.349 229.073 216.339C235.661 216.339 240.833 218.255 244.422 220.172C246.203 221.12 247.562 222.068 248.406 222.719C248.828 223.047 249.12 223.292 249.276 223.432L249.406 223.557L252.354 220.396L249.318 223.474L249.406 223.557L252.354 220.396L249.318 223.474L263.828 208.781C263.318 208.271 260.052 205.12 254.172 201.969C248.328 198.828 239.75 195.687 229.073 195.687C220.172 195.677 209.932 197.922 199.151 203.661C188.344 209.391 176.969 218.521 165.12 232.234C155.115 243.797 148.76 255.047 144.948 265.354C141.135 275.646 139.891 284.958 139.891 292.573C139.901 305.26 143.276 313.182 143.703 314.13L162.562 305.74Z" fill="#B14264"/>
<path d="M245.922 263.073L236.813 263.594H245.932L245.922 263.073L236.813 263.594H245.932C245.922 263.458 246 251.62 252.13 236.927C255.182 229.573 259.729 221.495 266.51 213.615C273.313 205.74 282.349 198.031 294.646 191.422L284.885 173.229C270.375 181.01 259.25 190.396 250.875 200.13C238.292 214.734 231.896 230 228.656 241.812C225.422 253.661 225.292 262.115 225.281 263.594C225.281 263.839 225.292 264.062 225.307 264.255L245.922 263.073Z" fill="#B14264"/>
<path d="M286.661 342.266L281.615 343.948L286.714 342.411L286.661 342.266L281.615 343.948L286.714 342.411L286.693 342.349C286.589 341.979 286.161 340.198 286.172 337.771C286.172 336.099 286.365 334.12 286.948 332C287.854 328.818 289.536 325.328 293.229 321.578C296.932 317.865 302.797 313.865 312.307 310.479C316.88 308.839 320.417 308.286 323.005 308.297C324.844 308.297 326.219 308.563 327.323 308.932C329.229 309.594 330.516 310.583 331.87 312.214C332.849 313.438 333.766 315.031 334.51 316.896C335.651 319.677 336.406 322.984 336.807 326.01C337.224 329.031 337.318 331.745 337.318 333.396C337.318 333.995 337.307 334.453 337.297 334.74L337.286 335.036V335.089L341.354 335.292L337.286 335.057V335.089L341.354 335.292L337.286 335.057L357.906 336.24C357.906 336.078 357.969 335.047 357.969 333.396C357.958 331 357.844 327.328 357.234 322.995C356.792 319.76 356.057 316.141 354.844 312.406C353 306.828 350.073 300.813 344.781 295.849C342.151 293.401 338.927 291.271 335.224 289.839C331.521 288.391 327.38 287.63 323.005 287.641C317.521 287.641 311.687 288.771 305.385 291.016C297.5 293.828 290.995 297.203 285.672 301.026C277.698 306.719 272.437 313.469 269.417 320.047C266.375 326.625 265.521 332.885 265.521 337.771C265.531 343.948 266.828 348.026 267.062 348.76L286.672 342.266" fill="#B14264"/>
<path d="M475.469 176.677L475.583 175.865L475.469 176.677L475.583 175.865L475.469 176.677C476.161 176.75 522.328 183.885 573.557 206.964C599.172 218.49 625.995 233.969 649.125 254.24C672.271 274.526 691.661 299.458 703.193 330.286L728.984 320.656C715.484 284.516 692.719 255.677 666.646 233C627.505 198.969 580.948 178.349 544.115 165.948C507.286 153.589 480.078 149.531 479.516 149.432L475.469 176.677Z" fill="white"/>
<path d="M381.302 475.885C385.187 494.661 394.505 525.75 415.615 545.443C428.865 557.813 445.458 564.073 464.943 564.073C474.958 564.073 485.911 562.432 497.505 559.182C532.906 549.276 556.422 529.484 567.385 500.349C580.5 465.505 572.687 425.479 568.953 410.589L563.437 409.682L554.411 408.542L544.766 407.714L534.589 407.276L523.839 407.318C521.807 407.38 519.568 407.51 517.302 407.646C515.865 407.734 514.417 407.818 512.948 407.88C510.849 408 508.656 408.255 506.328 408.531C504.859 408.703 503.38 408.87 501.88 409.01C499.568 409.203 497.281 409.609 494.844 410.042C493.51 410.276 492.172 410.51 490.818 410.724C487.328 411.224 483.854 412.036 479.99 412.958L473.391 414.495L460.672 418.323L458.255 419.219C456.979 419.719 455.604 420.219 454.229 420.729C452.208 421.464 450.198 422.214 448.198 423.042L438.448 427.438L429.323 432.219L420.891 437.318L413.198 442.641L406.286 448.047C401.87 451.771 398.068 455.286 395.057 458.438C391.979 461.641 389.318 464.677 387.339 467.229C385.266 469.807 383.922 471.807 383.052 473.141L381.302 475.885ZM72.6927 549.474C77.2239 564.146 91.3177 602.406 120.615 625.375C136.76 638.047 155.573 644.464 176.51 644.464C187.302 644.464 198.875 642.76 210.88 639.396C245.167 629.807 266.318 611.547 273.75 585.151C281.573 557.354 273.396 525.948 266.979 507.885L263.911 506.365C262.583 505.745 260.38 504.724 257.464 503.667C254.312 502.453 250.458 501.24 246.177 500.115C241.984 498.984 236.964 497.964 231.224 497.057L222.464 496.016L213.125 495.474L203.271 495.484L192.99 496.13L182.193 497.464C180.224 497.76 178.115 498.177 176 498.594C174.573 498.87 173.135 499.156 171.687 499.411L169.26 499.88L156.401 503.203L150.016 505.307C146.031 506.573 142.776 507.651 139.604 509C138.281 509.547 137.026 510.047 135.771 510.526C133.464 511.417 131.281 512.271 129.286 513.271C127.854 513.964 126.5 514.578 125.146 515.198C123.021 516.177 121.005 517.104 119.115 518.115C117.901 518.776 116.641 519.432 115.396 520.094C113.365 521.172 111.354 522.234 109.396 523.354L100.344 528.802L91.8854 534.453L84.0573 540.172L76.9375 545.833L72.6927 549.474ZM179.115 685.099C150.526 685.099 124.51 676.026 101.802 658.135C87.901 647.177 75.3958 632.521 64.6406 614.552C61.9583 610.089 59 605.865 55.8593 601.38C53.7083 598.318 51.5729 595.26 49.526 592.13C48.4218 590.438 47.4948 588.641 46.5989 586.906C45.6302 585.031 43.8333 581.531 42.8333 581.052H42.7656C41.9271 581.052 40.8177 581.307 39.7343 581.573C37.9583 581.984 35.7448 582.521 33.2708 582.521C31.2396 582.521 29.2812 582.156 27.4583 581.443C18.7552 578.026 11.6093 569.479 8.84372 559.12C6.30726 549.646 7.91664 540.396 13.25 533.719L15.9218 530.516C17.3385 528.875 19.5937 526.365 22.776 523.042C26 519.724 29.5885 516.24 33.4739 512.667L40.1614 506.776C40.1614 506.776 45.4948 502.38 47.8125 500.484L56.5208 493.885L65.8333 487.391L75.9271 481.005L86.3489 475.042C88.9687 473.641 91.4687 472.38 93.9896 471.115C95.2239 470.5 96.4583 469.88 97.7083 469.255C100.344 467.922 103.005 466.771 105.573 465.667C106.901 465.099 108.224 464.526 109.542 463.932C112.385 462.599 115.323 461.536 118.156 460.5C119.401 460.057 120.646 459.609 121.88 459.13C126.104 457.458 130.365 456.172 134.698 454.891L141.615 452.807L143.193 452.38L156.573 449.26L156.995 449.177L160.203 448.609C161.661 448.375 163.01 448.141 164.365 447.906C167.302 447.396 170.344 446.875 173.37 446.505L185.932 445.234L186.375 445.203L198.937 444.724L210.656 444.979L211.104 445.005L222.281 445.917L222.708 445.958L226.073 446.417C228.573 446.76 231.01 447.089 233.385 447.474C240.677 448.781 247.146 450.25 252.734 451.87C258.422 453.51 263.5 455.234 267.818 456.99C271.802 458.521 275.078 460.089 277.75 461.406C278.531 461.781 279.359 462.229 280.021 462.589L280.818 463.026L281.969 463.677C284.927 465.365 287.526 467.76 289.62 470.646C295.25 465.677 302.214 461.682 310.443 458.724C311.036 458.365 311.687 458.073 312.391 457.885C312.839 457.766 313.271 457.672 313.698 457.583L313.984 457.521L314.255 457.427C314.677 457.276 315.104 457.141 315.573 457C316.266 456.797 316.969 456.703 317.672 456.703H317.693C322.5 455.724 327.187 455.234 331.646 455.234C335.427 455.234 339.078 455.583 342.578 456.276C342.823 452.563 343.812 449.005 345.536 445.906L346.187 444.724L346.594 444.021C346.974 443.365 347.474 442.51 348.042 441.651C349.562 439.245 351.552 436.208 354.255 432.719C356.927 429.109 360.375 425 364.411 420.615C368.339 416.333 373.109 411.714 378.578 406.891C380.484 405.255 382.391 403.719 384.339 402.146L387 399.984L387.349 399.719L396.411 393.141L396.792 392.885L406.682 386.594L407.786 385.964L417.677 380.479L418.062 380.281L429.292 374.901C432.229 373.583 435.104 372.453 437.87 371.359C439.156 370.859 440.437 370.359 441.714 369.833L444.844 368.62L445.234 368.474L458.583 364.109L459.693 363.802L466.911 361.917C471.021 360.818 475.479 359.672 480.089 358.891C481.302 358.667 482.589 358.411 483.865 358.156C486.839 357.563 489.911 356.943 493.141 356.583C494.458 356.422 495.875 356.229 497.281 356.031C500.068 355.646 502.964 355.24 505.922 355.005C507.328 354.901 508.714 354.781 510.083 354.677C512.896 354.443 515.682 354.208 518.464 354.068L531.01 353.74L542.901 353.984L554.208 354.708C557.786 355.073 561.234 355.432 564.552 355.786C568.13 356.286 571.312 356.729 574.349 357.167L583.203 358.745C588.547 359.818 593.432 360.927 597.859 362.089C602.448 363.302 605.641 364.281 607.516 364.885L611.135 366.109L611.734 366.323C619.609 369.208 625.781 376.276 628.531 385.688C631.542 395.979 629.88 407 624.208 414.438C621.057 418.568 616.854 419.932 613.776 420.922C612.807 421.229 611.187 421.755 610.859 422.083C610.26 423.01 610.542 426.938 610.687 429.036C610.818 430.984 610.964 433.005 610.891 435.036C610.766 438.818 610.521 442.599 610.276 446.26C609.922 451.708 609.583 456.849 609.615 462.036C609.74 482.964 606.667 501.99 600.469 518.573C585.406 558.854 554.484 585.807 508.552 598.656C494.234 602.661 480.448 604.693 467.568 604.693C439.339 604.693 414.729 595.094 394.417 576.141C377.078 559.964 363.516 537.641 354.109 509.771C349.276 505.318 337.714 495.833 326.984 495.833C326.229 495.833 325.484 495.885 324.76 495.984C315.083 500.188 309.516 514.453 307.417 521.021C314.229 550.391 314.359 577.078 307.802 600.38C296.766 639.609 267.865 666.021 221.932 678.87C207.167 683 192.766 685.099 179.115 685.099Z" fill="#122032"/>
<path d="M203.516 503.021H203.557C206.74 503.01 209.849 503 212.891 503L217.693 503.276L221.802 503.521L230.193 504.521C235.609 505.37 240.323 506.339 244.219 507.385C248.266 508.458 251.854 509.589 254.63 510.651L254.906 510.75C257.432 511.661 259.328 512.536 260.729 513.198L260.87 513.26C266.776 530.74 273.385 558.661 266.5 583.104C259.729 607.141 240.88 623.182 208.859 632.146C197.5 635.318 186.62 636.937 176.51 636.937C157.021 636.937 140.266 631.224 125.266 619.458C100.281 599.859 86.9219 568.182 81.3958 551.927L81.7396 551.635L88.625 546.167L93.1719 542.833L96.1823 540.63C98.8542 538.854 101.578 537.031 104.37 535.167C107.286 533.411 110.255 531.635 113.271 529.812C115.057 528.802 116.932 527.812 118.911 526.76C120.187 526.089 121.464 525.406 122.745 524.714C124.359 523.844 126.266 522.969 128.286 522.042C129.682 521.406 131.089 520.766 132.484 520.083L132.661 520C134.333 519.156 136.359 518.38 138.484 517.552C139.807 517.042 141.115 516.531 142.427 515.984L142.562 515.932C145.437 514.708 148.526 513.687 152.26 512.495L157.932 510.63L158.51 510.437L159.531 510.172L162.521 509.396L165.458 508.641L168.385 507.885L170.932 507.224L173.115 506.807C174.573 506.542 176.01 506.266 177.448 505.979C179.5 505.573 181.437 505.203 183.323 504.917L193.677 503.625L197.562 503.38C199.578 503.266 201.557 503.135 203.516 503.021ZM524.062 414.844C527.583 414.833 531.057 414.823 534.453 414.812L537.047 414.917L544.276 415.229L547.052 415.474L553.599 416.026C555.932 416.323 558.198 416.609 560.401 416.891L562.349 417.135L562.776 417.208C566.49 433.964 571.516 467.984 560.339 497.698C550.12 524.844 528.906 542.578 495.479 551.937C484.536 554.99 474.266 556.547 464.943 556.547C447.182 556.547 432.729 551.115 420.755 539.937C402.177 522.62 393.333 495.312 389.307 477.323L389.406 477.172C390.214 475.958 391.406 474.193 393.099 472.083L393.292 471.839C395.109 469.5 397.599 466.667 400.474 463.661C403.286 460.734 406.807 457.458 411.005 453.911C413.177 452.208 415.38 450.484 417.646 448.708L420.167 446.974L424.979 443.641L431.932 439.448L433.026 438.776L437.135 436.625C438.656 435.828 440.193 435.016 441.734 434.219L449.844 430.568L451.281 429.917C453.016 429.193 454.859 428.51 456.818 427.802C458.203 427.286 459.589 426.776 460.969 426.245L463.057 425.469L465.516 424.734L468.078 423.958L471.443 422.932L474.297 422.083L475.328 421.776L475.948 421.635L481.641 420.307C485.557 419.37 488.708 418.635 491.818 418.187L491.969 418.167C493.375 417.953 494.766 417.698 496.161 417.453C498.406 417.057 500.536 416.677 502.391 416.526L502.589 416.505C504.135 416.365 505.677 416.187 507.198 416.005C509.417 415.75 511.49 415.505 513.406 415.396C514.802 415.333 516.281 415.25 517.75 415.161C519.953 415.036 522.052 414.906 524.062 414.844ZM530.865 346.214H530.458L524.255 346.385L518.443 346.531L518.068 346.552C515.141 346.703 512.255 346.937 509.458 347.172C508.104 347.276 506.745 347.396 505.38 347.49C502.146 347.745 499.141 348.172 496.234 348.578C494.906 348.76 493.562 348.948 492.214 349.109C488.698 349.505 485.495 350.141 482.385 350.771C481.172 351.016 479.958 351.26 478.734 351.484C473.849 352.312 469.229 353.505 464.917 354.656L458.776 356.24L457.917 356.474L457.604 356.562L456.5 356.88L455.979 357.031L454.521 357.51L451.573 358.479C449.87 359.031 448.109 359.615 446.354 360.193L445.781 360.37L442.906 361.318C442.63 361.406 442.365 361.5 442.099 361.609L439.062 362.786L438.891 362.854C437.635 363.365 436.38 363.865 435.125 364.354C432.26 365.469 429.312 366.641 426.365 367.964L426.031 368.109L421.031 370.505L414.802 373.49C414.547 373.615 414.281 373.745 414.026 373.891C410.641 375.766 407.307 377.62 404.042 379.427L403.401 379.792C403.146 379.927 402.891 380.078 402.646 380.234C399.271 382.375 395.964 384.484 392.75 386.526C392.49 386.698 392.234 386.87 391.979 387.047C388.875 389.307 385.859 391.5 382.932 393.62L382.229 394.151C381.349 394.875 380.474 395.589 379.599 396.292C377.687 397.833 375.693 399.443 373.766 401.089L373.599 401.24C367.932 406.245 362.974 411.042 358.865 415.516C354.693 420.052 351.104 424.318 348.208 428.224C345.38 431.896 343.24 435.167 341.672 437.625C341.057 438.573 340.505 439.521 340.078 440.255L339.865 440.625L339.589 441.094L338.979 442.203C337.979 444 337.172 445.906 336.542 447.875C334.937 447.76 333.297 447.708 331.646 447.708C326.875 447.708 321.917 448.208 316.839 449.198C315.714 449.25 314.573 449.443 313.464 449.771C312.932 449.922 312.443 450.089 311.953 450.25C311.464 450.359 310.974 450.474 310.464 450.615C309.302 450.922 308.208 451.359 307.193 451.891C300.948 454.198 295.349 457.062 290.417 460.469C288.948 459.214 287.385 458.099 285.724 457.151L284.573 456.5L284.021 456.193L283.615 455.969C282.891 455.573 281.979 455.083 281.01 454.615C278.229 453.24 274.812 451.625 270.526 449.964C265.99 448.12 260.698 446.333 254.812 444.63C248.99 442.948 242.26 441.417 234.823 440.073L234.589 440.042C232.073 439.625 229.531 439.286 227.073 438.958C225.974 438.807 224.88 438.656 223.76 438.51C223.464 438.469 223.177 438.432 222.891 438.411L220.526 438.208L211.724 437.5C211.422 437.464 211.125 437.453 210.818 437.443L210.052 437.432C206.484 437.359 202.823 437.276 199.089 437.198H198.776L198.203 437.208L195.828 437.307L186.078 437.677C185.781 437.687 185.484 437.708 185.172 437.745C181.109 438.146 176.979 438.562 172.781 438.99L172.453 439.021C169.24 439.427 166.109 439.958 163.089 440.49C161.755 440.714 160.427 440.948 159.094 441.161L158.901 441.193L155.687 441.755C155.411 441.807 155.125 441.865 154.849 441.927L151.885 442.63C149.917 443.078 147.917 443.542 145.906 444.021L142.979 444.703L141.5 445.047L140.943 445.182L139.839 445.479L139.453 445.599L138.677 445.823L132.495 447.687C128.266 448.932 123.677 450.323 119.125 452.125C117.953 452.573 116.771 452.995 115.589 453.422C112.63 454.5 109.562 455.615 106.359 457.094C105.104 457.672 103.849 458.214 102.594 458.755C99.9219 459.906 97.1615 461.089 94.3333 462.516C93.0625 463.161 91.8385 463.771 90.625 464.375C88.125 465.635 85.526 466.932 82.9427 468.318L82.6094 468.505L79.7292 470.156C77.1823 471.615 74.6719 473.052 72.1927 474.458L71.5729 474.833L66.2812 478.193L61.8021 481.036L61.2708 481.391C58.2864 483.464 55.3906 485.484 52.5833 487.448L52.2083 487.714L51.7396 488.052C48.8802 490.224 46.1094 492.323 43.4583 494.344L43.0573 494.651C40.7656 496.516 38.5729 498.323 36.4687 500.062L35.5729 500.786L35.1875 501.125L32.7604 503.255L28.6302 506.896L28.3646 507.13C24.3854 510.802 20.7031 514.38 17.401 517.766C14.0573 521.255 11.7187 523.875 10.3333 525.469L10.151 525.682L7.79165 528.505L7.6302 528.698L7.34374 529.047C0.52082 537.594 -1.58855 549.276 1.5729 561.057C4.9479 573.693 13.8125 584.193 24.7135 588.458C27.4062 589.516 30.2917 590.047 33.2708 590.047C35.5937 590.047 37.6562 589.724 39.3958 589.365C39.5729 589.714 39.7448 590.057 39.9062 590.365C40.8437 592.177 41.8958 594.229 43.2239 596.25C45.3542 599.521 47.5573 602.661 49.6979 605.703C52.7552 610.068 55.6458 614.198 58.1823 618.427C69.4114 637.172 82.5156 652.521 97.1406 664.052C121.208 683.01 148.792 692.635 179.115 692.635C193.453 692.635 208.542 690.443 223.964 686.12C272.599 672.516 303.245 644.349 315.052 602.427C321.802 578.443 321.854 551.187 315.224 521.385C318.276 512.547 322.589 505.828 326.812 503.37H326.984C332.297 503.37 340.161 507.479 347.615 514.047C357.406 542.25 371.406 564.974 389.286 581.646C411.036 601.937 437.37 612.229 467.568 612.229C481.141 612.229 495.609 610.099 510.573 605.917C558.953 592.375 591.573 563.88 607.516 521.214C614.042 503.766 617.276 483.839 617.141 461.995C617.109 457.073 617.437 452.062 617.786 446.76C618.031 443.031 618.292 439.177 618.417 435.271C618.5 432.865 618.344 430.557 618.193 428.51C618.172 428.172 618.141 427.802 618.12 427.406C621.578 426.172 626.432 423.948 630.187 419.016C637.292 409.703 639.427 396.12 635.755 383.568C632.328 371.849 624.464 362.958 614.182 359.203L613.818 359.073L613.562 358.979L610.042 357.786L609.828 357.724C607.87 357.083 604.536 356.073 599.844 354.818C595.177 353.604 590.167 352.464 584.844 351.385L584.526 351.333L580.141 350.547L575.911 349.792L575.422 349.719C572.38 349.281 569.182 348.823 565.854 348.354L565.344 348.292C562.021 347.937 558.562 347.589 554.984 347.214L554.401 347.161L552.016 347.01L543.37 346.469L542.734 346.437L531.151 346.214H530.865ZM176.51 652C188.026 652 200.172 650.214 212.917 646.656C249.896 636.297 272.802 616.286 281 587.182C289.906 555.542 279.635 520.094 272.875 502.094C272.068 501.88 271.25 501.594 270.437 501.198L269.182 500.573C269.182 500.573 268.51 500.24 267.245 499.615C265.682 498.891 263.276 497.76 260.016 496.578C256.812 495.354 252.781 494.078 248.104 492.833C243.443 491.589 238.099 490.51 232.255 489.594C229.328 489.245 226.286 488.88 223.125 488.51C219.964 488.328 216.693 488.125 213.339 487.937C209.974 487.937 206.536 487.948 203.016 487.958C199.51 488.182 195.927 488.391 192.286 488.625C188.677 489.073 184.995 489.531 181.266 489.99C177.594 490.542 174.042 491.344 170.365 492L167.599 492.536L164.661 493.302C162.682 493.802 160.714 494.312 158.734 494.823L155.76 495.589L154.281 495.974L153.229 496.323L147.661 498.156C143.948 499.339 140.245 500.552 136.656 502.073C133.057 503.573 129.375 504.797 125.917 506.531C122.432 508.214 118.911 509.682 115.557 511.474C112.214 513.292 108.885 514.974 105.667 516.818C102.484 518.724 99.3646 520.604 96.3125 522.448C93.3177 524.437 90.401 526.385 87.5625 528.281C84.7917 530.302 82.0989 532.271 79.4948 534.187C76.9583 536.203 74.5 538.151 72.1458 540.021C69.8489 541.995 67.6562 543.875 65.5677 545.667C65.0677 546.125 64.5989 546.547 64.1198 546.995C66.8802 557.141 81.1615 604 115.964 631.307C133.536 645.083 153.802 652 176.51 652ZM464.943 571.609C475.672 571.609 487.219 569.885 499.536 566.432C537.38 555.854 562.573 534.51 574.432 503C590.016 461.599 577.891 414.12 574.984 404.031C574.349 403.891 573.719 403.771 573.068 403.635C570.354 403.187 567.495 402.719 564.51 402.229C561.531 401.859 558.422 401.464 555.208 401.047C551.995 400.771 548.661 400.495 545.245 400.198C541.828 400.047 538.323 399.896 534.74 399.74C531.172 399.76 527.521 399.771 523.818 399.792C520.125 399.885 516.385 400.177 512.599 400.365C508.797 400.568 505.016 401.156 501.177 401.516C497.312 401.823 493.531 402.687 489.677 403.271C485.823 403.828 482.026 404.719 478.234 405.635L472.531 406.969L471.443 407.214L467.036 408.542C465.089 409.141 463.13 409.714 461.193 410.307L458.276 411.182L455.635 412.161C452.156 413.516 448.698 414.661 445.281 416.109C441.854 417.646 438.479 419.167 435.156 420.656C431.911 422.349 428.74 424.021 425.63 425.651C422.615 427.469 419.667 429.26 416.792 430.995C414.036 432.911 411.333 434.771 408.734 436.573C406.224 438.521 403.807 440.417 401.484 442.234C396.974 446.057 392.958 449.74 389.62 453.229C386.276 456.714 383.484 459.906 381.391 462.62C379.219 465.312 377.729 467.526 376.781 468.964C376.026 470.146 375.62 470.786 375.62 470.786L374.875 471.969C374.385 472.734 373.844 473.406 373.255 474C376.823 492.896 386.437 528.526 410.469 550.958C425.224 564.708 443.458 571.609 464.943 571.609ZM530.865 361.276C534.812 361.349 538.677 361.427 542.432 361.5C546.214 361.734 549.885 361.969 553.443 362.203C557.005 362.562 560.448 362.927 563.755 363.266C567.078 363.734 570.25 364.182 573.271 364.62C576.307 365.161 579.182 365.672 581.885 366.151C587.302 367.25 592.042 368.354 595.969 369.37C599.896 370.422 603.036 371.349 605.208 372.052C607.495 372.828 608.708 373.245 608.708 373.245L609.005 373.349C622.443 378.255 626.422 399.12 618.214 409.875C614.693 414.505 607.719 413.068 604.536 417.995C601.734 422.328 603.547 429.302 603.365 434.781C603.068 443.865 602.026 452.932 602.089 462.089C602.203 481.099 599.562 499.464 593.411 515.943C579.245 553.839 550.016 579.24 506.521 591.406C492.797 595.25 479.802 597.167 467.568 597.167C441.266 597.167 418.495 588.302 399.562 570.641C379.599 552.021 367.698 527.057 360.651 505.594C355.49 500.583 341.333 488.307 326.984 488.307C325.557 488.307 324.13 488.427 322.714 488.693C308.964 493.927 302.172 511.974 299.625 520.776C305 543.057 308.141 571.375 300.552 598.349C290.271 634.875 263.135 659.526 219.896 671.62C205.729 675.594 192.115 677.573 179.115 677.573C152.208 677.573 127.885 669.099 106.469 652.214C92.651 641.333 80.8646 626.995 71.1042 610.687C66.3906 602.844 60.8021 595.625 55.8281 588.01C52.8281 583.422 50.7604 576.526 46.1198 574.271C44.9583 573.703 43.8021 573.5 42.6406 573.5C39.5312 573.5 36.4219 574.984 33.2708 574.984C32.25 574.984 31.2396 574.833 30.2083 574.437C17.6146 569.5 10.1927 549.604 19.125 538.427L19.3177 538.182C19.3177 538.182 20.1458 537.203 21.7031 535.349C23.1927 533.625 25.3958 531.198 28.2083 528.26C31.0364 525.354 34.5208 521.948 38.5729 518.208C40.6406 516.391 42.8333 514.464 45.1406 512.422C47.4948 510.484 49.9739 508.448 52.5729 506.328C55.2239 504.318 57.9792 502.219 60.8333 500.062C63.7604 498.016 66.7708 495.906 69.8802 493.75C73.0521 491.734 76.3229 489.672 79.651 487.552C83.0573 485.604 86.5521 483.604 90.0833 481.578C93.6719 479.651 97.3958 477.865 101.125 475.958C104.849 474.083 108.776 472.542 112.651 470.786C116.505 468.984 120.583 467.698 124.583 466.156C128.589 464.568 132.693 463.323 136.823 462.109L143 460.255L143.776 460.021L144.885 459.714L146.385 459.375L149.375 458.682C151.365 458.203 153.344 457.745 155.328 457.286L158.286 456.594L161.5 456.031C165.802 455.328 170.099 454.49 174.297 453.979C178.479 453.552 182.609 453.135 186.677 452.729C190.781 452.573 194.828 452.411 198.786 452.26C202.781 452.339 206.687 452.422 210.5 452.505C214.328 452.828 218.057 453.125 221.667 453.422C225.292 453.922 228.797 454.359 232.172 454.901C238.922 456.115 245.125 457.51 250.641 459.109C256.167 460.693 260.974 462.333 264.99 463.974C268.969 465.505 272.161 467.047 274.411 468.156C275.484 468.667 276.484 469.24 277.073 469.552C277.859 470.01 278.26 470.234 278.26 470.234C282.927 472.896 286.161 478.109 287.234 483.74L287.5 484.37C292.135 477.458 300.214 470.115 314.37 465.333L314.328 465.167C314.911 465.005 315.443 464.922 316.021 464.781C316.583 464.599 317.083 464.401 317.672 464.229L317.724 464.401C322.823 463.25 327.453 462.771 331.646 462.771C340.016 462.771 346.604 464.708 351.656 467.24C351.583 466.729 351.521 466.229 351.458 465.771C349.453 460.396 349.51 454.255 352.115 449.568C352.115 449.568 352.339 449.156 352.776 448.365C353.125 447.792 353.682 446.792 354.328 445.792C355.672 443.672 357.599 440.703 360.219 437.318C362.792 433.844 366.052 429.937 369.948 425.714C373.833 421.49 378.422 417.078 383.562 412.536C386.146 410.318 388.927 408.135 391.755 405.818C394.698 403.698 397.729 401.495 400.839 399.24C404.052 397.193 407.354 395.089 410.714 392.948C414.187 391.021 417.719 389.062 421.318 387.073C425 385.302 428.75 383.516 432.536 381.693C436.401 379.958 440.51 378.458 444.547 376.818L447.578 375.635L450.474 374.693C452.411 374.052 454.339 373.411 456.286 372.786L460.661 371.349L461.766 371.026L462.547 370.828L468.792 369.208C472.943 368.099 477.12 367.036 481.344 366.312C485.568 365.547 489.724 364.536 493.958 364.078C498.182 363.557 502.333 362.844 506.51 362.51C510.672 362.203 514.781 361.797 518.844 361.599C522.932 361.479 526.948 361.385 530.865 361.276Z" fill="#13263F"/>
<path d="M449.974 381.005C449.75 381.078 434.729 386.271 415.667 397.875C396.599 409.479 373.417 427.51 357.089 453.51L365.38 458.703C380.526 434.536 402.51 417.323 420.755 406.234C429.865 400.688 438.031 396.672 443.885 394.052C446.812 392.745 449.167 391.786 450.76 391.156C451.573 390.839 452.177 390.615 452.594 390.458L453.042 390.297L453.146 390.266L453.167 390.255L449.974 381.005Z" fill="#3C4661"/>
<path d="M161.104 471.99H161.115C161.797 471.839 176.339 468.828 196.917 468.828C218.292 468.818 246.104 472.094 271.661 484.932L276.047 476.182C248.521 462.396 219.26 459.042 196.917 459.031C174.698 459.042 159.266 462.375 159.031 462.427L161.104 471.99Z" fill="#3C4661"/>
<path d="M193.307 727.76L151.869 731.244L121.021 879.343L65.6043 884.026L96.4423 735.906L55 739.385L59.3333 718.296L197.651 706.687L193.307 727.76Z" fill="#FFBD59" stroke="#122032" stroke-width="8"/>
<path d="M266.088 721.651L250.661 795.656L285.119 792.75L300.541 718.755L266.088 721.651ZM325.359 862.052L269.942 866.739L261.989 815.416L246.317 816.724L235.239 869.677L179.812 874.359L215.005 705.239L334.521 695.198C342.39 694.536 348.166 696.421 351.875 700.838C355.567 705.27 356.526 711.484 354.76 719.489L341.75 782.682C340.302 789.546 337.364 795.369 332.958 800.151C328.531 804.942 323.271 808.229 317.172 810.031L325.359 862.052Z" fill="#FFBD59" stroke="#122032" stroke-width="8"/>
<path d="M401.265 855.635L345.838 860.328L381.031 691.291L436.448 686.64L401.265 855.635Z" fill="#FFBD59" stroke="#122032" stroke-width="8"/>
<path d="M518.859 845.692L463.677 850.354L453.797 685.192L509.213 680.541L516.208 804.302L576.448 674.895L599.099 672.994L518.859 845.692Z" fill="#FFBD59" stroke="#122032" stroke-width="8"/>
<path d="M636.453 835.739L581.026 840.432L616.203 671.557L671.63 666.901L636.453 835.739Z" fill="#FFBD59" stroke="#122032" stroke-width="8"/>
<path d="M743.432 681.541L728.005 755.421L762.708 752.489L778.135 678.635L743.432 681.541ZM802.713 821.687L747.297 826.369L758.375 773.526L723.677 776.453L712.593 829.307L657.166 833.994L686.812 691.588C688.567 683.593 692.349 676.984 698.135 671.765C703.916 666.562 710.656 663.625 718.375 662.984L811.864 655.13C819.734 654.468 825.567 656.343 829.333 660.75C833.114 665.156 834.125 671.364 832.349 679.359L802.713 821.687Z" fill="#FFBD59" stroke="#122032" stroke-width="8"/>
</svg>
