<svg width="874" height="1080" viewBox="0 0 874 1080" fill="none" xmlns="http://www.w3.org/2000/svg">
<path d="M816.922 381.042C816.922 591.552 646.276 762.198 435.776 762.198C225.281 762.198 54.6354 591.552 54.6354 381.042C54.6354 170.526 225.281 -0.130249 435.776 -0.130249C646.276 -0.130249 816.922 170.526 816.922 381.042Z" fill="#7BD4F1"/>
<path d="M536.922 708.703C536.922 708.703 661.422 727.781 675.865 638.401C690.323 549.01 543.349 556.432 503.271 561.87C463.193 567.313 536.922 708.703 536.922 708.703Z" fill="#DE5681"/>
<path d="M536.922 708.703L535.354 718.911C535.729 718.964 547.333 720.734 564.063 720.734C573.859 720.734 585.427 720.125 597.573 718.156C615.766 715.188 635.385 709.224 652.031 697.036C660.339 690.948 667.849 683.26 673.76 673.766C679.677 664.281 683.969 653.026 686.063 640.042C686.807 635.38 687.182 630.865 687.182 626.531C687.193 618.391 685.865 610.807 683.328 603.922C678.911 591.839 670.854 582.161 661.047 574.828C653.682 569.302 645.318 564.99 636.396 561.563C623.005 556.422 608.349 553.24 593.615 551.281C578.88 549.333 564.063 548.641 550.448 548.641C530.193 548.641 512.63 550.182 501.88 551.641C498.396 552.099 494.958 553.313 492.021 555.302C489.828 556.781 487.943 558.656 486.474 560.714C484.26 563.797 482.943 567.193 482.12 570.635C481.323 574.083 481.016 577.615 481.016 581.276C481.026 587.25 481.844 593.583 483.177 600.271C485.516 611.948 489.479 624.677 494.083 637.391C501.005 656.432 509.391 675.375 516.068 689.615C522.75 703.859 527.714 713.385 527.766 713.484L530.182 718.125L535.354 718.911L536.922 708.703L546.073 703.932L545.958 703.708C544.703 701.271 533.427 679.354 522.583 653.474C517.151 640.542 511.844 626.604 507.943 613.776C505.984 607.359 504.401 601.219 503.313 595.672C502.219 590.135 501.656 585.177 501.667 581.276C501.656 579.094 501.833 577.245 502.125 575.859C502.323 574.807 502.589 574.021 502.833 573.495C503.208 572.698 503.432 572.536 503.526 572.453C503.635 572.391 503.76 572.24 504.667 572.104C514.385 570.771 531.281 569.281 550.448 569.281C563.552 569.281 577.766 569.974 591.547 571.849C601.885 573.229 611.99 575.286 621.182 578.135C635 582.406 646.646 588.495 654.375 596.286C658.26 600.182 661.229 604.464 663.297 609.37C665.349 614.281 666.531 619.87 666.542 626.531C666.542 629.693 666.266 633.089 665.682 636.75C663.391 650.75 658.292 661.193 651.448 669.484C646.297 675.703 640.078 680.719 633.104 684.781C622.641 690.885 610.453 694.771 598.307 697.068C586.172 699.38 574.125 700.089 564.063 700.089C556.422 700.089 549.938 699.677 545.406 699.271C543.135 699.068 541.359 698.865 540.177 698.729C539.583 698.656 539.135 698.589 538.849 698.547L538.536 698.505H538.484L538.359 699.313L538.484 698.505L538.359 699.313L538.484 698.505L536.922 708.703L546.073 703.932L536.922 708.703Z" fill="#B14264"/>
<path d="M467.599 597.802C467.599 597.802 461.078 754.5 548.937 774.099C583.812 778.708 550.089 644.724 575.87 570.432C601.661 496.135 458.276 510.307 467.599 597.802Z" fill="#DF6886"/>
<path d="M467.599 597.802L457.286 597.365C457.286 597.49 457.172 600.26 457.172 605.026C457.172 613.068 457.49 626.776 459.193 643.203C461.781 667.859 467.37 698.589 480.224 725.714C486.677 739.266 494.99 751.964 505.922 762.313C516.823 772.661 530.448 780.568 546.693 784.167L547.141 784.266L547.589 784.328C548.599 784.453 549.62 784.531 550.641 784.531C553.677 784.542 556.828 783.87 559.594 782.484C562.021 781.292 564.109 779.625 565.792 777.771C568.729 774.5 570.526 770.786 571.88 766.859C573.88 760.964 574.901 754.37 575.552 746.943C576.188 739.521 576.38 731.292 576.38 722.417C576.38 703.708 575.484 682.12 575.484 660.245C575.484 644.641 575.943 628.906 577.458 614.12C578.969 599.344 581.552 585.516 585.62 573.818C588.068 566.781 589.302 560.104 589.302 553.802C589.313 547.073 587.854 540.75 585.057 535.302C582.969 531.203 580.161 527.615 576.891 524.646C571.984 520.161 566.089 517.057 559.786 515.042C553.474 513.042 546.703 512.125 539.76 512.125C530.469 512.125 520.839 513.776 511.469 517C497.438 521.833 483.932 530.224 473.714 542.443C468.615 548.542 464.365 555.615 461.427 563.552C458.469 571.484 456.839 580.276 456.839 589.729C456.839 592.724 457 595.776 457.339 598.906L467.599 597.802L457.286 597.365L467.599 597.802L477.875 596.693C477.609 594.286 477.479 591.969 477.479 589.729C477.5 580.276 479.609 572.271 483.167 565.323C488.484 554.922 497.245 546.766 507.552 541.188C517.813 535.609 529.531 532.745 539.76 532.766C544.297 532.766 548.521 533.323 552.172 534.323C554.922 535.089 557.349 536.099 559.391 537.292C562.469 539.089 564.661 541.24 566.182 543.797C567.682 546.37 568.63 549.479 568.651 553.802C568.651 557.38 567.938 561.786 566.12 567.047C561.307 580.906 558.542 596.182 556.922 612.01C555.302 627.839 554.844 644.234 554.844 660.245C554.844 682.656 555.74 704.359 555.74 722.417C555.74 729.854 555.578 736.677 555.177 742.599C554.88 747.036 554.422 750.974 553.823 754.234C553.375 756.672 552.854 758.724 552.302 760.302C551.484 762.698 550.589 763.854 550.396 763.995L550.354 764.026L550.651 764.401L550.417 763.995L550.354 764.026L550.651 764.401L550.417 763.995L550.917 764.891L550.672 763.891L550.417 763.995L550.917 764.891L550.672 763.891L550.781 764.323L550.729 763.88L550.672 763.891L550.781 764.323L550.729 763.88L550.641 763.891L550.292 763.854L548.938 774.099L551.182 764.016C542.88 762.161 535.688 758.948 529.224 754.625C517.964 747.078 508.938 735.953 501.813 722.661C491.104 702.766 484.943 678.214 481.651 656.245C478.344 634.25 477.807 614.844 477.823 605.026C477.823 602.802 477.844 601.078 477.875 599.917C477.885 599.333 477.896 598.896 477.906 598.62L477.917 598.313V598.234L477.948 597.448L477.875 596.693L467.599 597.802Z" fill="#B14264"/>
<path d="M220.219 460.781C220.219 460.781 84.125 411.219 92.4167 327.068C100.698 242.917 248.469 96.7031 443.755 116.203C639.036 135.719 891.307 322.203 759.693 552.651C679.891 666.812 597.766 567.057 362.156 575.87C229.042 580.854 208.625 501.875 220.219 460.781Z" fill="#F591AA"/>
<path d="M220.219 460.781L223.74 451.083C223.208 450.906 191.766 439.26 161.182 418.438C145.885 408.057 130.865 395.391 119.984 381.146C114.536 374.026 110.12 366.542 107.083 358.771C104.052 350.99 102.37 342.938 102.37 334.432C102.37 332.339 102.474 330.229 102.688 328.089V328.078C103.526 319.469 106.115 309.672 110.469 299.219C118.068 280.911 131.047 260.63 148.641 240.724C175.021 210.823 211.745 181.74 255.943 160.234C300.146 138.719 351.786 124.766 408.313 124.755C419.594 124.755 431.068 125.318 442.724 126.479C481.016 130.297 521.849 140.786 561.411 156.964C620.792 181.214 677.281 218.323 718.542 264.333C739.182 287.349 756.021 312.557 767.677 339.479C779.333 366.411 785.839 395.036 785.839 425.167C785.828 463.531 775.313 504.443 750.719 547.531L759.693 552.651L751.219 546.734C744.172 556.828 737.203 565.01 730.26 571.604C719.818 581.49 709.505 587.802 698.542 591.818C687.568 595.818 675.802 597.521 662.484 597.521C648.427 597.521 632.714 595.594 615 592.583C588.443 588.083 557.432 581.182 520.719 575.401C484.005 569.62 441.552 564.979 391.958 564.979C382.177 564.979 372.109 565.162 361.76 565.557C357.854 565.693 354.042 565.766 350.349 565.766C325.406 565.766 305.281 562.521 289.203 557.26C265.083 549.323 250.073 537.047 240.729 523.594C231.406 510.125 227.755 495.135 227.745 481.714C227.745 475.078 228.646 468.865 230.146 463.594L232.755 454.365L223.74 451.083L220.219 460.781L210.276 457.974C208.24 465.193 207.104 473.219 207.104 481.714C207.104 493.135 209.167 505.443 214.104 517.537C217.802 526.604 223.125 535.547 230.339 543.807C241.156 556.198 256.219 566.948 276.005 574.484C295.797 582.037 320.286 586.422 350.349 586.422C354.307 586.422 358.375 586.333 362.536 586.188C372.62 585.813 382.422 585.63 391.958 585.63C456.38 585.63 508.245 593.635 551.813 601.729C573.594 605.771 593.318 609.839 611.552 612.938C629.786 616.037 646.552 618.167 662.484 618.177C672.526 618.177 682.245 617.313 691.688 615.25C705.844 612.172 719.349 606.307 732.031 597.01C744.729 587.719 756.599 575.094 768.146 558.573L768.411 558.188L768.656 557.776C794.802 512.021 806.5 467.354 806.49 425.167C806.5 380.995 793.693 339.724 772.193 302.766C739.906 247.292 688.245 201.292 629.698 167.474C571.109 133.672 505.583 112.031 444.781 105.932C432.432 104.698 420.276 104.109 408.313 104.109C362.646 104.109 319.979 112.714 281.604 126.859C224.016 148.109 176.073 181.76 141.521 217.953C124.245 236.063 110.307 254.807 100.208 273.13C90.1146 291.458 83.8021 309.354 82.1302 326.057L82.1406 326.036C81.8542 328.875 81.7188 331.677 81.7188 334.432C81.7188 345.781 84.0156 356.557 87.9427 366.521C94.8333 383.979 106.552 398.979 119.922 411.802C140.021 431.021 164.042 445.495 183.13 455.365C202.219 465.214 216.385 470.375 216.672 470.479L220.219 460.781L210.276 457.974L220.219 460.781Z" fill="#B14264"/>
<path d="M314.276 498L314.359 497.99C316.448 497.745 354.339 493.411 402.156 493.411C431.495 493.411 464.557 495.052 495.203 500.161C510.521 502.714 525.234 506.146 538.526 510.583C551.813 515.031 563.682 520.516 573.349 527.042L573.422 527.083C576.318 529.01 579.734 530.865 583.609 532.661C589.422 535.354 596.245 537.885 603.599 539.792C610.953 541.688 618.802 542.964 626.698 542.974C633.063 542.974 639.505 542.146 645.656 539.859C651.786 537.589 657.667 533.714 662.094 528.031L645.828 515.307C643.953 517.682 641.646 519.292 638.438 520.505C635.266 521.698 631.224 522.333 626.698 522.323C619.224 522.344 610.552 520.589 602.854 518.068C599.01 516.813 595.391 515.375 592.286 513.927C589.188 512.5 586.568 511.042 584.823 509.87L584.885 509.922C573.198 502.047 559.677 495.901 545.073 491.005C523.167 483.682 498.76 479.167 474.135 476.432C449.536 473.698 424.734 472.771 402.156 472.771C351.531 472.771 312.094 477.464 311.828 477.495L314.276 498Z" fill="#B14264"/>
<path d="M229.615 465.052L224.667 462.807L229.583 465.094L229.615 465.052L224.667 462.807L229.583 465.094C229.583 465.094 229.693 464.891 229.901 464.469C231.562 461.286 239.74 446.932 258.38 433.49C267.703 426.75 279.656 420.203 294.911 415.307C310.156 410.411 328.698 407.161 351.245 407.161C369 407.161 389.245 409.188 412.25 414.052L413.187 414.245L414.146 414.266C414.219 414.276 414.547 414.276 415.115 414.276C417.995 414.266 426.703 414.115 436.745 411.922C441.766 410.802 447.141 409.188 452.37 406.609C457.562 404.031 462.714 400.448 466.719 395.208C467.484 394.177 469.38 392.302 472.135 390.396C476.286 387.479 482.385 384.359 489.839 382.042C497.312 379.708 506.146 378.156 515.974 378.156C526.286 378.156 537.688 379.859 549.885 384.214C562.073 388.578 575.083 395.604 588.557 406.385L601.458 390.26C586.344 378.156 571.281 369.938 556.839 364.771C542.38 359.599 528.562 357.5 515.974 357.5C499.953 357.516 485.943 360.875 474.828 365.573C469.26 367.922 464.406 370.609 460.323 373.458C456.224 376.333 452.891 379.302 450.292 382.688C448.833 384.635 446.417 386.521 443.214 388.099C438.432 390.484 432.099 392.016 426.641 392.771C421.167 393.547 416.583 393.635 415.115 393.62H414.625L414.578 395.635L414.635 393.62H414.625L414.578 395.635L414.635 393.62L414.391 403.948L416.516 393.844C392.245 388.714 370.573 386.51 351.245 386.51C324.661 386.51 302.51 390.682 284.307 397.094C256.984 406.672 238.641 421.234 227.219 433.51C215.776 445.786 211.167 455.75 210.807 456.516L229.615 465.052Z" fill="#B14264"/>
<path d="M567.823 524.432L568.448 518.385L567.781 524.432H567.823L568.448 518.385L567.781 524.432L567.865 524.443C568.375 524.505 571.089 524.891 574.797 525.984C580.385 527.625 588.078 530.906 594.219 536.62C597.307 539.495 600.068 542.932 602.203 547.255C604.354 551.578 605.922 556.807 606.453 563.427L627.042 561.807C626.057 549.141 621.953 538.656 616.255 530.604C611.99 524.547 606.911 519.854 601.792 516.255C594.094 510.859 586.333 507.859 580.427 506.12C574.516 504.396 570.422 503.953 569.964 503.896L567.823 524.432Z" fill="#B14264"/>
<path d="M407.406 397.943L401.688 399.573L407.417 397.974L407.406 397.943L401.688 399.573L407.417 397.974L407.344 397.677C406.958 396.219 405.427 389.547 405.438 381.135C405.438 376.432 405.906 371.182 407.214 365.984C408.203 362.089 409.651 358.214 411.708 354.521C414.802 348.974 419.208 343.802 425.948 339.323C432.677 334.859 441.854 331.083 454.521 328.953L451.104 308.589C437.766 310.823 426.745 314.792 417.797 320.073C411.078 324.031 405.542 328.74 401.115 333.849C394.453 341.516 390.344 350.031 387.938 358.224C385.531 366.422 384.786 374.312 384.786 381.135C384.797 393.932 387.391 403.01 387.552 403.62L407.406 397.943Z" fill="#B14264"/>
<path d="M612.49 478.297C612.745 478.255 621.896 476.771 635.672 473.177C656.333 467.734 687.344 457.677 714.464 440.057C728.005 431.224 740.63 420.448 750.266 407.12C759.896 393.823 766.432 377.823 767.359 359.536L746.74 358.469C746.24 367.839 743.927 376.208 740.193 383.938C733.667 397.422 722.557 409.026 709.078 418.724C688.927 433.276 663.755 443.271 643.729 449.417C633.724 452.49 625.005 454.63 618.833 455.995C615.745 456.677 613.297 457.167 611.635 457.474C610.807 457.63 610.177 457.75 609.76 457.813L609.307 457.901L609.208 457.911H609.198L612.49 478.307" fill="#B14264"/>
<path d="M723.896 545.276H723.833H723.896H723.833H723.896C723.896 544.901 724.516 532.276 727.875 519.729C729.516 513.469 731.891 507.271 734.724 502.844C736.125 500.63 737.63 498.865 739.089 497.625C740.557 496.37 741.927 495.635 743.417 495.198L755.172 491.859L722.542 423.396L703.906 432.286L731.281 489.708L740.599 485.266L737.776 475.333C733.052 476.677 728.911 479.115 725.516 482.063C719.542 487.26 715.625 493.849 712.656 500.589C708.26 510.708 706.047 521.453 704.766 529.849C703.51 538.219 703.276 544.214 703.266 544.479L723.906 545.276" fill="#B14264"/>
<path d="M562.214 303.542C562.859 303.734 573.411 307.245 587.771 307.276C597.266 307.266 608.594 305.703 619.536 300.005C624.995 297.167 630.307 293.271 635.042 288.156C639.781 283.047 643.911 276.734 647.167 269.198C651.938 258.141 653.948 248.76 653.948 240.625C653.958 235.208 653.021 230.385 651.609 226.307C649.479 220.187 646.307 215.771 644.271 212.917C643.25 211.5 642.536 210.458 642.349 210.099L642.292 210L642.281 209.979L638.271 211.844H642.615C642.615 210.651 642.281 209.979 642.281 209.979L638.271 211.844H642.615H636.469L642.26 213.896C642.484 213.292 642.625 212.51 642.615 211.844H636.469L642.26 213.896L638.464 212.547L641.453 215.354C641.484 215.323 641.932 214.844 642.26 213.896L638.464 212.547L641.453 215.354H641.464C641.505 215.312 641.844 214.995 642.516 214.557L631.031 197.396C628.797 198.896 626.781 200.526 625.016 202.88C624.135 204.062 623.344 205.443 622.802 207C622.25 208.552 621.964 210.245 621.964 211.844C621.974 214.302 622.578 216.385 623.25 217.995C624.484 220.828 625.828 222.583 626.984 224.245C628.745 226.682 630.245 228.792 631.37 231.26C632.469 233.729 633.286 236.495 633.297 240.625C633.297 245.323 632.151 251.88 628.208 261.026C625.802 266.578 622.964 270.807 619.896 274.13C615.286 279.078 610.115 282.104 604.568 284.016C599.052 285.932 593.177 286.625 587.771 286.625C582.333 286.625 577.391 285.922 573.911 285.219C572.167 284.87 570.781 284.531 569.875 284.286C569.427 284.156 569.089 284.062 568.885 283.995L568.693 283.943L568.672 283.932L566.969 289.172L568.708 283.943L568.672 283.932L566.969 289.172L568.708 283.943L562.214 303.542Z" fill="#B14264"/>
<path d="M634.969 275.078L636.448 269.635L634.938 275.062L634.969 275.078L636.448 269.635L634.938 275.062C634.938 275.062 635.068 275.099 635.323 275.172C637.224 275.755 646.104 278.708 656.13 285.208C661.146 288.469 666.448 292.589 671.375 297.708C676.302 302.828 680.87 308.937 684.49 316.229L691.589 330.557L701.724 318.177L698.656 315.677L701.714 318.187L701.724 318.177L698.656 315.677L701.714 318.187C701.766 318.125 707.057 311.771 714.583 305.776C718.339 302.786 722.63 299.901 726.917 297.88C731.208 295.844 735.411 294.729 739.063 294.74C741.302 294.74 743.365 295.109 745.484 295.984L753.339 276.885C748.615 274.937 743.729 274.083 739.063 274.083C731.24 274.094 724.089 276.344 717.797 279.354C708.344 283.901 700.573 290.255 694.953 295.484C689.354 300.708 685.948 304.849 685.745 305.104L693.74 311.641L702.979 307.052C697.932 296.885 691.474 288.542 684.693 281.792C674.495 271.682 663.615 265.12 655.214 261.026C646.818 256.927 640.875 255.276 640.396 255.146L634.969 275.078Z" fill="#B14264"/>
<path d="M692.641 415.094C692.995 414.677 698.688 407.865 704.448 396.635C710.188 385.406 716.083 369.661 716.104 351.318C716.135 337.073 712.37 321.286 702.385 306L685.083 317.286C692.813 329.198 695.432 340.568 695.464 351.318C695.484 365.094 690.865 377.911 686.073 387.224C683.693 391.875 681.307 395.625 679.552 398.167C678.667 399.432 677.953 400.391 677.474 401.021C677.229 401.328 677.047 401.552 676.943 401.682L676.833 401.818L676.823 401.828L681.125 405.406L676.844 401.807L676.823 401.828L681.125 405.406L676.844 401.807L692.641 415.094Z" fill="#B14264"/>
<path d="M502.109 377.932C502.687 377.453 512.396 369.573 522.167 354.641C527.042 347.167 531.927 337.917 535.599 326.974C539.281 316.016 541.734 303.359 541.734 289.214C541.734 276.292 539.687 262.151 534.792 247.026C532.385 239.594 531.406 233.156 531.406 227.557C531.406 221.839 532.417 216.974 534.12 212.62C535.62 208.807 537.687 205.38 540.229 202.219C544.672 196.693 550.672 192.01 557.328 188.198C567.302 182.474 578.667 178.797 587.443 176.672C591.818 175.604 595.552 174.911 598.151 174.5C599.448 174.286 600.458 174.146 601.12 174.062C601.458 174.021 601.703 173.99 601.854 173.969L602.016 173.953L602.047 173.943L601.589 169.677L602.026 173.943H602.047L601.589 169.677L602.026 173.943L599.917 153.411C599.62 153.443 594.266 154.005 586.281 155.75C580.286 157.062 572.812 159.042 564.865 162.01C552.943 166.495 539.849 173.135 529.214 183.651C523.911 188.911 519.25 195.193 515.948 202.557C512.651 209.917 510.745 218.349 510.755 227.557C510.755 235.583 512.172 244.193 515.141 253.38C519.401 266.547 521.083 278.474 521.083 289.214C521.083 300.974 519.068 311.354 516.036 320.391C511.49 333.943 504.615 344.474 498.906 351.552C496.057 355.099 493.51 357.76 491.734 359.495C490.839 360.365 490.135 361.005 489.687 361.401L489.208 361.812L489.125 361.88H489.115L493.583 367.359L489.146 361.854L489.115 361.88L493.583 367.359L489.146 361.854L502.109 377.932Z" fill="#B14264"/>
<path d="M446.099 258.042L443.651 258.031L446.099 258.052V258.042L443.651 258.031L446.099 258.052C446.089 257.797 446.333 244.896 450.432 230.437C452.464 223.214 455.443 215.62 459.62 209.021C463.792 202.401 469.036 196.812 475.766 192.958C483.911 188.297 490.37 182.63 495.333 176.625C502.792 167.589 506.901 157.891 509.125 149.516C511.365 141.125 511.766 134.005 511.766 129.703C511.766 127.214 511.63 125.656 511.609 125.38L491.052 127.37C491.062 127.583 491.125 128.406 491.125 129.703C491.135 133.641 490.562 141.911 487.073 150.536C485.323 154.859 482.875 159.276 479.427 163.458C475.958 167.641 471.5 171.604 465.505 175.042C455.094 181.005 447.443 189.474 441.885 198.437C433.536 211.917 429.609 226.578 427.557 237.953C425.531 249.333 425.458 257.479 425.458 257.896L446.099 258.042Z" fill="#B14264"/>
<path d="M320.833 313.495L316.828 315.135L320.854 313.536L320.833 313.495L316.828 315.135L320.854 313.536C320.776 313.391 314.646 297.87 314.656 273.458C314.667 255.255 318.021 232.12 329.807 206.286C341.609 180.458 361.891 151.833 396.24 122.828L382.922 107.052C346.505 137.781 324.151 168.943 311.026 197.703C297.891 226.458 293.995 252.708 294.005 273.458C294.016 302.219 301.375 320.448 301.724 321.318L320.833 313.495Z" fill="#B14264"/>
<path d="M162.562 314.74L157.01 317.208L162.609 314.849L162.562 314.74L157.01 317.208L162.609 314.849L162.406 314.932L162.609 314.849L162.406 314.932L162.609 314.849C162.552 314.708 160.542 309.703 160.542 301.573C160.542 296.177 161.406 289.406 164.323 281.505C167.24 273.62 172.229 264.578 180.734 254.734C191.276 242.531 200.76 235.177 208.818 230.906C216.906 226.63 223.547 225.349 229.073 225.339C235.661 225.339 240.833 227.255 244.422 229.172C246.203 230.12 247.562 231.068 248.406 231.719C248.828 232.047 249.12 232.292 249.276 232.432L249.406 232.557L252.354 229.396L249.318 232.474L249.406 232.557L252.354 229.396L249.318 232.474L263.828 217.781C263.318 217.271 260.052 214.12 254.172 210.969C248.328 207.828 239.75 204.687 229.073 204.687C220.172 204.677 209.932 206.922 199.151 212.661C188.344 218.391 176.969 227.521 165.12 241.234C155.115 252.797 148.76 264.047 144.948 274.354C141.135 284.646 139.891 293.958 139.891 301.573C139.901 314.26 143.276 322.182 143.703 323.13L162.562 314.74Z" fill="#B14264"/>
<path d="M245.922 272.073L236.813 272.594H245.932L245.922 272.073L236.813 272.594H245.932C245.922 272.458 246 260.62 252.13 245.927C255.182 238.573 259.729 230.495 266.51 222.615C273.313 214.74 282.349 207.031 294.646 200.422L284.885 182.229C270.375 190.01 259.25 199.396 250.875 209.13C238.292 223.734 231.896 239 228.656 250.812C225.422 262.661 225.292 271.115 225.281 272.594C225.281 272.839 225.292 273.062 225.307 273.255L245.922 272.073Z" fill="#B14264"/>
<path d="M286.661 351.266L281.615 352.948L286.714 351.411L286.661 351.266L281.615 352.948L286.714 351.411L286.693 351.349C286.589 350.979 286.161 349.198 286.172 346.771C286.172 345.099 286.365 343.12 286.948 341C287.854 337.818 289.536 334.328 293.229 330.578C296.932 326.865 302.797 322.865 312.307 319.479C316.88 317.839 320.417 317.286 323.005 317.297C324.844 317.297 326.219 317.563 327.323 317.932C329.229 318.594 330.516 319.583 331.87 321.214C332.849 322.438 333.766 324.031 334.51 325.896C335.651 328.677 336.406 331.984 336.807 335.01C337.224 338.031 337.318 340.745 337.318 342.396C337.318 342.995 337.307 343.453 337.297 343.74L337.286 344.036V344.089L341.354 344.292L337.286 344.057V344.089L341.354 344.292L337.286 344.057L357.906 345.24C357.906 345.078 357.969 344.047 357.969 342.396C357.958 340 357.844 336.328 357.234 331.995C356.792 328.76 356.057 325.141 354.844 321.406C353 315.828 350.073 309.813 344.781 304.849C342.151 302.401 338.927 300.271 335.224 298.839C331.521 297.391 327.38 296.63 323.005 296.641C317.521 296.641 311.687 297.771 305.385 300.016C297.5 302.828 290.995 306.203 285.672 310.026C277.698 315.719 272.437 322.469 269.417 329.047C266.375 335.625 265.521 341.885 265.521 346.771C265.531 352.948 266.828 357.026 267.062 357.76L286.672 351.266" fill="#B14264"/>
<path d="M475.469 185.677L475.583 184.865L475.469 185.677L475.583 184.865L475.469 185.677C476.161 185.75 522.328 192.885 573.557 215.964C599.172 227.49 625.995 242.969 649.125 263.24C672.271 283.526 691.661 308.458 703.193 339.286L728.984 329.656C715.484 293.516 692.719 264.677 666.646 242C627.505 207.969 580.948 187.349 544.115 174.948C507.286 162.589 480.078 158.531 479.516 158.432L475.469 185.677Z" fill="white"/>
<path d="M381.302 484.885C385.187 503.661 394.505 534.75 415.615 554.443C428.865 566.813 445.458 573.073 464.943 573.073C474.958 573.073 485.911 571.432 497.505 568.182C532.906 558.276 556.422 538.484 567.385 509.349C580.5 474.505 572.687 434.479 568.953 419.589L563.437 418.682L554.411 417.542L544.766 416.714L534.589 416.276L523.839 416.318C521.807 416.38 519.568 416.51 517.302 416.646C515.865 416.734 514.417 416.818 512.948 416.88C510.849 417 508.656 417.255 506.328 417.531C504.859 417.703 503.38 417.87 501.88 418.01C499.568 418.203 497.281 418.609 494.844 419.042C493.51 419.276 492.172 419.51 490.818 419.724C487.328 420.224 483.854 421.036 479.99 421.958L473.391 423.495L460.672 427.323L458.255 428.219C456.979 428.719 455.604 429.219 454.229 429.729C452.208 430.464 450.198 431.214 448.198 432.042L438.448 436.438L429.323 441.219L420.891 446.318L413.198 451.641L406.286 457.047C401.87 460.771 398.068 464.286 395.057 467.438C391.979 470.641 389.318 473.677 387.339 476.229C385.266 478.807 383.922 480.807 383.052 482.141L381.302 484.885ZM72.6927 558.474C77.2239 573.146 91.3177 611.406 120.615 634.375C136.76 647.047 155.573 653.464 176.51 653.464C187.302 653.464 198.875 651.76 210.88 648.396C245.167 638.807 266.318 620.547 273.75 594.151C281.573 566.354 273.396 534.948 266.979 516.885L263.911 515.365C262.583 514.745 260.38 513.724 257.464 512.667C254.312 511.453 250.458 510.24 246.177 509.115C241.984 507.984 236.964 506.964 231.224 506.057L222.464 505.016L213.125 504.474L203.271 504.484L192.99 505.13L182.193 506.464C180.224 506.76 178.115 507.177 176 507.594C174.573 507.87 173.135 508.156 171.687 508.411L169.26 508.88L156.401 512.203L150.016 514.307C146.031 515.573 142.776 516.651 139.604 518C138.281 518.547 137.026 519.047 135.771 519.526C133.464 520.417 131.281 521.271 129.286 522.271C127.854 522.964 126.5 523.578 125.146 524.198C123.021 525.177 121.005 526.104 119.115 527.115C117.901 527.776 116.641 528.432 115.396 529.094C113.365 530.172 111.354 531.234 109.396 532.354L100.344 537.802L91.8854 543.453L84.0573 549.172L76.9375 554.833L72.6927 558.474ZM179.115 694.099C150.526 694.099 124.51 685.026 101.802 667.135C87.901 656.177 75.3958 641.521 64.6406 623.552C61.9583 619.089 59 614.865 55.8593 610.38C53.7083 607.318 51.5729 604.26 49.526 601.13C48.4218 599.438 47.4948 597.641 46.5989 595.906C45.6302 594.031 43.8333 590.531 42.8333 590.052H42.7656C41.9271 590.052 40.8177 590.307 39.7343 590.573C37.9583 590.984 35.7448 591.521 33.2708 591.521C31.2396 591.521 29.2812 591.156 27.4583 590.443C18.7552 587.026 11.6093 578.479 8.84372 568.12C6.30726 558.646 7.91664 549.396 13.25 542.719L15.9218 539.516C17.3385 537.875 19.5937 535.365 22.776 532.042C26 528.724 29.5885 525.24 33.4739 521.667L40.1614 515.776C40.1614 515.776 45.4948 511.38 47.8125 509.484L56.5208 502.885L65.8333 496.391L75.9271 490.005L86.3489 484.042C88.9687 482.641 91.4687 481.38 93.9896 480.115C95.2239 479.5 96.4583 478.88 97.7083 478.255C100.344 476.922 103.005 475.771 105.573 474.667C106.901 474.099 108.224 473.526 109.542 472.932C112.385 471.599 115.323 470.536 118.156 469.5C119.401 469.057 120.646 468.609 121.88 468.13C126.104 466.458 130.365 465.172 134.698 463.891L141.615 461.807L143.193 461.38L156.573 458.26L156.995 458.177L160.203 457.609C161.661 457.375 163.01 457.141 164.365 456.906C167.302 456.396 170.344 455.875 173.37 455.505L185.932 454.234L186.375 454.203L198.937 453.724L210.656 453.979L211.104 454.005L222.281 454.917L222.708 454.958L226.073 455.417C228.573 455.76 231.01 456.089 233.385 456.474C240.677 457.781 247.146 459.25 252.734 460.87C258.422 462.51 263.5 464.234 267.818 465.99C271.802 467.521 275.078 469.089 277.75 470.406C278.531 470.781 279.359 471.229 280.021 471.589L280.818 472.026L281.969 472.677C284.927 474.365 287.526 476.76 289.62 479.646C295.25 474.677 302.214 470.682 310.443 467.724C311.036 467.365 311.687 467.073 312.391 466.885C312.839 466.766 313.271 466.672 313.698 466.583L313.984 466.521L314.255 466.427C314.677 466.276 315.104 466.141 315.573 466C316.266 465.797 316.969 465.703 317.672 465.703H317.693C322.5 464.724 327.187 464.234 331.646 464.234C335.427 464.234 339.078 464.583 342.578 465.276C342.823 461.563 343.812 458.005 345.536 454.906L346.187 453.724L346.594 453.021C346.974 452.365 347.474 451.51 348.042 450.651C349.562 448.245 351.552 445.208 354.255 441.719C356.927 438.109 360.375 434 364.411 429.615C368.339 425.333 373.109 420.714 378.578 415.891C380.484 414.255 382.391 412.719 384.339 411.146L387 408.984L387.349 408.719L396.411 402.141L396.792 401.885L406.682 395.594L407.786 394.964L417.677 389.479L418.062 389.281L429.292 383.901C432.229 382.583 435.104 381.453 437.87 380.359C439.156 379.859 440.437 379.359 441.714 378.833L444.844 377.62L445.234 377.474L458.583 373.109L459.693 372.802L466.911 370.917C471.021 369.818 475.479 368.672 480.089 367.891C481.302 367.667 482.589 367.411 483.865 367.156C486.839 366.563 489.911 365.943 493.141 365.583C494.458 365.422 495.875 365.229 497.281 365.031C500.068 364.646 502.964 364.24 505.922 364.005C507.328 363.901 508.714 363.781 510.083 363.677C512.896 363.443 515.682 363.208 518.464 363.068L531.01 362.74L542.901 362.984L554.208 363.708C557.786 364.073 561.234 364.432 564.552 364.786C568.13 365.286 571.312 365.729 574.349 366.167L583.203 367.745C588.547 368.818 593.432 369.927 597.859 371.089C602.448 372.302 605.641 373.281 607.516 373.885L611.135 375.109L611.734 375.323C619.609 378.208 625.781 385.276 628.531 394.688C631.542 404.979 629.88 416 624.208 423.438C621.057 427.568 616.854 428.932 613.776 429.922C612.807 430.229 611.187 430.755 610.859 431.083C610.26 432.01 610.542 435.938 610.687 438.036C610.818 439.984 610.964 442.005 610.891 444.036C610.766 447.818 610.521 451.599 610.276 455.26C609.922 460.708 609.583 465.849 609.615 471.036C609.74 491.964 606.667 510.99 600.469 527.573C585.406 567.854 554.484 594.807 508.552 607.656C494.234 611.661 480.448 613.693 467.568 613.693C439.339 613.693 414.729 604.094 394.417 585.141C377.078 568.964 363.516 546.641 354.109 518.771C349.276 514.318 337.714 504.833 326.984 504.833C326.229 504.833 325.484 504.885 324.76 504.984C315.083 509.188 309.516 523.453 307.417 530.021C314.229 559.391 314.359 586.078 307.802 609.38C296.766 648.609 267.865 675.021 221.932 687.87C207.167 692 192.766 694.099 179.115 694.099Z" fill="#122032"/>
<path d="M203.516 512.021H203.557C206.74 512.01 209.849 512 212.891 512L217.693 512.276L221.802 512.521L230.193 513.521C235.609 514.37 240.323 515.339 244.219 516.385C248.266 517.458 251.854 518.589 254.63 519.651L254.906 519.75C257.432 520.661 259.328 521.536 260.729 522.198L260.87 522.26C266.776 539.74 273.385 567.661 266.5 592.104C259.729 616.141 240.88 632.182 208.859 641.146C197.5 644.318 186.62 645.937 176.51 645.937C157.021 645.937 140.266 640.224 125.266 628.458C100.281 608.859 86.9219 577.182 81.3958 560.927L81.7396 560.635L88.625 555.167L93.1719 551.833L96.1823 549.63C98.8542 547.854 101.578 546.031 104.37 544.167C107.286 542.411 110.255 540.635 113.271 538.812C115.057 537.802 116.932 536.812 118.911 535.76C120.187 535.089 121.464 534.406 122.745 533.714C124.359 532.844 126.266 531.969 128.286 531.042C129.682 530.406 131.089 529.766 132.484 529.083L132.661 529C134.333 528.156 136.359 527.38 138.484 526.552C139.807 526.042 141.115 525.531 142.427 524.984L142.562 524.932C145.437 523.708 148.526 522.687 152.26 521.495L157.932 519.63L158.51 519.437L159.531 519.172L162.521 518.396L165.458 517.641L168.385 516.885L170.932 516.224L173.115 515.807C174.573 515.542 176.01 515.266 177.448 514.979C179.5 514.573 181.437 514.203 183.323 513.917L193.677 512.625L197.562 512.38C199.578 512.266 201.557 512.135 203.516 512.021ZM524.062 423.844C527.583 423.833 531.057 423.823 534.453 423.812L537.047 423.917L544.276 424.229L547.052 424.474L553.599 425.026C555.932 425.323 558.198 425.609 560.401 425.891L562.349 426.135L562.776 426.208C566.49 442.964 571.516 476.984 560.339 506.698C550.12 533.844 528.906 551.578 495.479 560.937C484.536 563.99 474.266 565.547 464.943 565.547C447.182 565.547 432.729 560.115 420.755 548.937C402.177 531.62 393.333 504.312 389.307 486.323L389.406 486.172C390.214 484.958 391.406 483.193 393.099 481.083L393.292 480.839C395.109 478.5 397.599 475.667 400.474 472.661C403.286 469.734 406.807 466.458 411.005 462.911C413.177 461.208 415.38 459.484 417.646 457.708L420.167 455.974L424.979 452.641L431.932 448.448L433.026 447.776L437.135 445.625C438.656 444.828 440.193 444.016 441.734 443.219L449.844 439.568L451.281 438.917C453.016 438.193 454.859 437.51 456.818 436.802C458.203 436.286 459.589 435.776 460.969 435.245L463.057 434.469L465.516 433.734L468.078 432.958L471.443 431.932L474.297 431.083L475.328 430.776L475.948 430.635L481.641 429.307C485.557 428.37 488.708 427.635 491.818 427.187L491.969 427.167C493.375 426.953 494.766 426.698 496.161 426.453C498.406 426.057 500.536 425.677 502.391 425.526L502.589 425.505C504.135 425.365 505.677 425.187 507.198 425.005C509.417 424.75 511.49 424.505 513.406 424.396C514.802 424.333 516.281 424.25 517.75 424.161C519.953 424.036 522.052 423.906 524.062 423.844ZM530.865 355.214H530.458L524.255 355.385L518.443 355.531L518.068 355.552C515.141 355.703 512.255 355.937 509.458 356.172C508.104 356.276 506.745 356.396 505.38 356.49C502.146 356.745 499.141 357.172 496.234 357.578C494.906 357.76 493.562 357.948 492.214 358.109C488.698 358.505 485.495 359.141 482.385 359.771C481.172 360.016 479.958 360.26 478.734 360.484C473.849 361.312 469.229 362.505 464.917 363.656L458.776 365.24L457.917 365.474L457.604 365.562L456.5 365.88L455.979 366.031L454.521 366.51L451.573 367.479C449.87 368.031 448.109 368.615 446.354 369.193L445.781 369.37L442.906 370.318C442.63 370.406 442.365 370.5 442.099 370.609L439.062 371.786L438.891 371.854C437.635 372.365 436.38 372.865 435.125 373.354C432.26 374.469 429.312 375.641 426.365 376.964L426.031 377.109L421.031 379.505L414.802 382.49C414.547 382.615 414.281 382.745 414.026 382.891C410.641 384.766 407.307 386.62 404.042 388.427L403.401 388.792C403.146 388.927 402.891 389.078 402.646 389.234C399.271 391.375 395.964 393.484 392.75 395.526C392.49 395.698 392.234 395.87 391.979 396.047C388.875 398.307 385.859 400.5 382.932 402.62L382.229 403.151C381.349 403.875 380.474 404.589 379.599 405.292C377.687 406.833 375.693 408.443 373.766 410.089L373.599 410.24C367.932 415.245 362.974 420.042 358.865 424.516C354.693 429.052 351.104 433.318 348.208 437.224C345.38 440.896 343.24 444.167 341.672 446.625C341.057 447.573 340.505 448.521 340.078 449.255L339.865 449.625L339.589 450.094L338.979 451.203C337.979 453 337.172 454.906 336.542 456.875C334.937 456.76 333.297 456.708 331.646 456.708C326.875 456.708 321.917 457.208 316.839 458.198C315.714 458.25 314.573 458.443 313.464 458.771C312.932 458.922 312.443 459.089 311.953 459.25C311.464 459.359 310.974 459.474 310.464 459.615C309.302 459.922 308.208 460.359 307.193 460.891C300.948 463.198 295.349 466.062 290.417 469.469C288.948 468.214 287.385 467.099 285.724 466.151L284.573 465.5L284.021 465.193L283.615 464.969C282.891 464.573 281.979 464.083 281.01 463.615C278.229 462.24 274.812 460.625 270.526 458.964C265.99 457.12 260.698 455.333 254.812 453.63C248.99 451.948 242.26 450.417 234.823 449.073L234.589 449.042C232.073 448.625 229.531 448.286 227.073 447.958C225.974 447.807 224.88 447.656 223.76 447.51C223.464 447.469 223.177 447.432 222.891 447.411L220.526 447.208L211.724 446.5C211.422 446.464 211.125 446.453 210.818 446.443L210.052 446.432C206.484 446.359 202.823 446.276 199.089 446.198H198.776L198.203 446.208L195.828 446.307L186.078 446.677C185.781 446.687 185.484 446.708 185.172 446.745C181.109 447.146 176.979 447.562 172.781 447.99L172.453 448.021C169.24 448.427 166.109 448.958 163.089 449.49C161.755 449.714 160.427 449.948 159.094 450.161L158.901 450.193L155.687 450.755C155.411 450.807 155.125 450.865 154.849 450.927L151.885 451.63C149.917 452.078 147.917 452.542 145.906 453.021L142.979 453.703L141.5 454.047L140.943 454.182L139.839 454.479L139.453 454.599L138.677 454.823L132.495 456.687C128.266 457.932 123.677 459.323 119.125 461.125C117.953 461.573 116.771 461.995 115.589 462.422C112.63 463.5 109.562 464.615 106.359 466.094C105.104 466.672 103.849 467.214 102.594 467.755C99.9219 468.906 97.1615 470.089 94.3333 471.516C93.0625 472.161 91.8385 472.771 90.625 473.375C88.125 474.635 85.526 475.932 82.9427 477.318L82.6094 477.505L79.7292 479.156C77.1823 480.615 74.6719 482.052 72.1927 483.458L71.5729 483.833L66.2812 487.193L61.8021 490.036L61.2708 490.391C58.2864 492.464 55.3906 494.484 52.5833 496.448L52.2083 496.714L51.7396 497.052C48.8802 499.224 46.1094 501.323 43.4583 503.344L43.0573 503.651C40.7656 505.516 38.5729 507.323 36.4687 509.062L35.5729 509.786L35.1875 510.125L32.7604 512.255L28.6302 515.896L28.3646 516.13C24.3854 519.802 20.7031 523.38 17.401 526.766C14.0573 530.255 11.7187 532.875 10.3333 534.469L10.151 534.682L7.79165 537.505L7.6302 537.698L7.34374 538.047C0.520821 546.594 -1.58855 558.276 1.5729 570.057C4.9479 582.693 13.8125 593.193 24.7135 597.458C27.4062 598.516 30.2917 599.047 33.2708 599.047C35.5937 599.047 37.6562 598.724 39.3958 598.365C39.5729 598.714 39.7448 599.057 39.9062 599.365C40.8437 601.177 41.8958 603.229 43.2239 605.25C45.3542 608.521 47.5573 611.661 49.6979 614.703C52.7552 619.068 55.6458 623.198 58.1823 627.427C69.4114 646.172 82.5156 661.521 97.1406 673.052C121.208 692.01 148.792 701.635 179.115 701.635C193.453 701.635 208.542 699.443 223.964 695.12C272.599 681.516 303.245 653.349 315.052 611.427C321.802 587.443 321.854 560.187 315.224 530.385C318.276 521.547 322.589 514.828 326.812 512.37H326.984C332.297 512.37 340.161 516.479 347.615 523.047C357.406 551.25 371.406 573.974 389.286 590.646C411.036 610.937 437.37 621.229 467.568 621.229C481.141 621.229 495.609 619.099 510.573 614.917C558.953 601.375 591.573 572.88 607.516 530.214C614.042 512.766 617.276 492.839 617.141 470.995C617.109 466.073 617.437 461.062 617.786 455.76C618.031 452.031 618.292 448.177 618.417 444.271C618.5 441.865 618.344 439.557 618.193 437.51C618.172 437.172 618.141 436.802 618.12 436.406C621.578 435.172 626.432 432.948 630.187 428.016C637.292 418.703 639.427 405.12 635.755 392.568C632.328 380.849 624.464 371.958 614.182 368.203L613.818 368.073L613.562 367.979L610.042 366.786L609.828 366.724C607.87 366.083 604.536 365.073 599.844 363.818C595.177 362.604 590.167 361.464 584.844 360.385L584.526 360.333L580.141 359.547L575.911 358.792L575.422 358.719C572.38 358.281 569.182 357.823 565.854 357.354L565.344 357.292C562.021 356.937 558.562 356.589 554.984 356.214L554.401 356.161L552.016 356.01L543.37 355.469L542.734 355.437L531.151 355.214H530.865ZM176.51 661C188.026 661 200.172 659.214 212.917 655.656C249.896 645.297 272.802 625.286 281 596.182C289.906 564.542 279.635 529.094 272.875 511.094C272.068 510.88 271.25 510.594 270.437 510.198L269.182 509.573C269.182 509.573 268.51 509.24 267.245 508.615C265.682 507.891 263.276 506.76 260.016 505.578C256.812 504.354 252.781 503.078 248.104 501.833C243.443 500.589 238.099 499.51 232.255 498.594C229.328 498.245 226.286 497.88 223.125 497.51C219.964 497.328 216.693 497.125 213.339 496.937C209.974 496.937 206.536 496.948 203.016 496.958C199.51 497.182 195.927 497.391 192.286 497.625C188.677 498.073 184.995 498.531 181.266 498.99C177.594 499.542 174.042 500.344 170.365 501L167.599 501.536L164.661 502.302C162.682 502.802 160.714 503.312 158.734 503.823L155.76 504.589L154.281 504.974L153.229 505.323L147.661 507.156C143.948 508.339 140.245 509.552 136.656 511.073C133.057 512.573 129.375 513.797 125.917 515.531C122.432 517.214 118.911 518.682 115.557 520.474C112.214 522.292 108.885 523.974 105.667 525.818C102.484 527.724 99.3646 529.604 96.3125 531.448C93.3177 533.437 90.401 535.385 87.5625 537.281C84.7917 539.302 82.0989 541.271 79.4948 543.187C76.9583 545.203 74.5 547.151 72.1458 549.021C69.8489 550.995 67.6562 552.875 65.5677 554.667C65.0677 555.125 64.5989 555.547 64.1198 555.995C66.8802 566.141 81.1615 613 115.964 640.307C133.536 654.083 153.802 661 176.51 661ZM464.943 580.609C475.672 580.609 487.219 578.885 499.536 575.432C537.38 564.854 562.573 543.51 574.432 512C590.016 470.599 577.891 423.12 574.984 413.031C574.349 412.891 573.719 412.771 573.068 412.635C570.354 412.187 567.495 411.719 564.51 411.229C561.531 410.859 558.422 410.464 555.208 410.047C551.995 409.771 548.661 409.495 545.245 409.198C541.828 409.047 538.323 408.896 534.74 408.74C531.172 408.76 527.521 408.771 523.818 408.792C520.125 408.885 516.385 409.177 512.599 409.365C508.797 409.568 505.016 410.156 501.177 410.516C497.312 410.823 493.531 411.687 489.677 412.271C485.823 412.828 482.026 413.719 478.234 414.635L472.531 415.969L471.443 416.214L467.036 417.542C465.089 418.141 463.13 418.714 461.193 419.307L458.276 420.182L455.635 421.161C452.156 422.516 448.698 423.661 445.281 425.109C441.854 426.646 438.479 428.167 435.156 429.656C431.911 431.349 428.74 433.021 425.63 434.651C422.615 436.469 419.667 438.26 416.792 439.995C414.036 441.911 411.333 443.771 408.734 445.573C406.224 447.521 403.807 449.417 401.484 451.234C396.974 455.057 392.958 458.74 389.62 462.229C386.276 465.714 383.484 468.906 381.391 471.62C379.219 474.312 377.729 476.526 376.781 477.964C376.026 479.146 375.62 479.786 375.62 479.786L374.875 480.969C374.385 481.734 373.844 482.406 373.255 483C376.823 501.896 386.437 537.526 410.469 559.958C425.224 573.708 443.458 580.609 464.943 580.609ZM530.865 370.276C534.812 370.349 538.677 370.427 542.432 370.5C546.214 370.734 549.885 370.969 553.443 371.203C557.005 371.562 560.448 371.927 563.755 372.266C567.078 372.734 570.25 373.182 573.271 373.62C576.307 374.161 579.182 374.672 581.885 375.151C587.302 376.25 592.042 377.354 595.969 378.37C599.896 379.422 603.036 380.349 605.208 381.052C607.495 381.828 608.708 382.245 608.708 382.245L609.005 382.349C622.443 387.255 626.422 408.12 618.214 418.875C614.693 423.505 607.719 422.068 604.536 426.995C601.734 431.328 603.547 438.302 603.365 443.781C603.068 452.865 602.026 461.932 602.089 471.089C602.203 490.099 599.562 508.464 593.411 524.943C579.245 562.839 550.016 588.24 506.521 600.406C492.797 604.25 479.802 606.167 467.568 606.167C441.266 606.167 418.495 597.302 399.562 579.641C379.599 561.021 367.698 536.057 360.651 514.594C355.49 509.583 341.333 497.307 326.984 497.307C325.557 497.307 324.13 497.427 322.714 497.693C308.964 502.927 302.172 520.974 299.625 529.776C305 552.057 308.141 580.375 300.552 607.349C290.271 643.875 263.135 668.526 219.896 680.62C205.729 684.594 192.115 686.573 179.115 686.573C152.208 686.573 127.885 678.099 106.469 661.214C92.651 650.333 80.8646 635.995 71.1042 619.687C66.3906 611.844 60.8021 604.625 55.8281 597.01C52.8281 592.422 50.7604 585.526 46.1198 583.271C44.9583 582.703 43.8021 582.5 42.6406 582.5C39.5312 582.5 36.4219 583.984 33.2708 583.984C32.25 583.984 31.2396 583.833 30.2083 583.437C17.6146 578.5 10.1927 558.604 19.125 547.427L19.3177 547.182C19.3177 547.182 20.1458 546.203 21.7031 544.349C23.1927 542.625 25.3958 540.198 28.2083 537.26C31.0364 534.354 34.5208 530.948 38.5729 527.208C40.6406 525.391 42.8333 523.464 45.1406 521.422C47.4948 519.484 49.9739 517.448 52.5729 515.328C55.2239 513.318 57.9792 511.219 60.8333 509.062C63.7604 507.016 66.7708 504.906 69.8802 502.75C73.0521 500.734 76.3229 498.672 79.651 496.552C83.0573 494.604 86.5521 492.604 90.0833 490.578C93.6719 488.651 97.3958 486.865 101.125 484.958C104.849 483.083 108.776 481.542 112.651 479.786C116.505 477.984 120.583 476.698 124.583 475.156C128.589 473.568 132.693 472.323 136.823 471.109L143 469.255L143.776 469.021L144.885 468.714L146.385 468.375L149.375 467.682C151.365 467.203 153.344 466.745 155.328 466.286L158.286 465.594L161.5 465.031C165.802 464.328 170.099 463.49 174.297 462.979C178.479 462.552 182.609 462.135 186.677 461.729C190.781 461.573 194.828 461.411 198.786 461.26C202.781 461.339 206.687 461.422 210.5 461.505C214.328 461.828 218.057 462.125 221.667 462.422C225.292 462.922 228.797 463.359 232.172 463.901C238.922 465.115 245.125 466.51 250.641 468.109C256.167 469.693 260.974 471.333 264.99 472.974C268.969 474.505 272.161 476.047 274.411 477.156C275.484 477.667 276.484 478.24 277.073 478.552C277.859 479.01 278.26 479.234 278.26 479.234C282.927 481.896 286.161 487.109 287.234 492.74L287.5 493.37C292.135 486.458 300.214 479.115 314.37 474.333L314.328 474.167C314.911 474.005 315.443 473.922 316.021 473.781C316.583 473.599 317.083 473.401 317.672 473.229L317.724 473.401C322.823 472.25 327.453 471.771 331.646 471.771C340.016 471.771 346.604 473.708 351.656 476.24C351.583 475.729 351.521 475.229 351.458 474.771C349.453 469.396 349.51 463.255 352.115 458.568C352.115 458.568 352.339 458.156 352.776 457.365C353.125 456.792 353.682 455.792 354.328 454.792C355.672 452.672 357.599 449.703 360.219 446.318C362.792 442.844 366.052 438.937 369.948 434.714C373.833 430.49 378.422 426.078 383.562 421.536C386.146 419.318 388.927 417.135 391.755 414.818C394.698 412.698 397.729 410.495 400.839 408.24C404.052 406.193 407.354 404.089 410.714 401.948C414.187 400.021 417.719 398.062 421.318 396.073C425 394.302 428.75 392.516 432.536 390.693C436.401 388.958 440.51 387.458 444.547 385.818L447.578 384.635L450.474 383.693C452.411 383.052 454.339 382.411 456.286 381.786L460.661 380.349L461.766 380.026L462.547 379.828L468.792 378.208C472.943 377.099 477.12 376.036 481.344 375.312C485.568 374.547 489.724 373.536 493.958 373.078C498.182 372.557 502.333 371.844 506.51 371.51C510.672 371.203 514.781 370.797 518.844 370.599C522.932 370.479 526.948 370.385 530.865 370.276Z" fill="#13263F"/>
<path d="M449.974 390.005C449.75 390.078 434.729 395.271 415.667 406.875C396.599 418.479 373.417 436.51 357.089 462.51L365.38 467.703C380.526 443.536 402.51 426.323 420.755 415.234C429.865 409.688 438.031 405.672 443.885 403.052C446.812 401.745 449.167 400.786 450.76 400.156C451.573 399.839 452.177 399.615 452.594 399.458L453.042 399.297L453.146 399.266L453.167 399.255L449.974 390.005Z" fill="#3C4661"/>
<path d="M161.104 480.99H161.115C161.797 480.839 176.339 477.828 196.917 477.828C218.292 477.818 246.104 481.094 271.661 493.932L276.047 485.182C248.521 471.396 219.26 468.042 196.917 468.031C174.698 468.042 159.266 471.375 159.031 471.427L161.104 480.99Z" fill="#3C4661"/>
<path d="M229.125 700.625L187.687 704.109L156.839 852.208L101.422 856.891L132.26 708.771L90.8177 712.25L95.151 691.161L233.469 679.552L229.125 700.625Z" fill="#FFBD59" stroke="#122032" stroke-width="8"/>
<path d="M301.906 694.516L286.479 768.521L320.937 765.615L336.359 691.62L301.906 694.516ZM361.177 834.917L305.76 839.604L297.807 788.281L282.135 789.589L271.057 842.542L215.63 847.224L250.823 678.104L370.339 668.063C378.208 667.401 383.984 669.286 387.693 673.703C391.385 678.135 392.344 684.349 390.578 692.354L377.568 755.547C376.12 762.411 373.182 768.234 368.776 773.016C364.349 777.807 359.089 781.094 352.99 782.896L361.177 834.917Z" fill="#FFBD59" stroke="#122032" stroke-width="8"/>
<path d="M437.083 828.5L381.656 833.193L416.849 664.156L472.266 659.505L437.083 828.5Z" fill="#FFBD59" stroke="#122032" stroke-width="8"/>
<path d="M554.677 818.557L499.495 823.219L489.615 658.057L545.031 653.406L552.026 777.167L612.266 647.76L634.917 645.859L554.677 818.557Z" fill="#FFBD59" stroke="#122032" stroke-width="8"/>
<path d="M672.271 808.604L616.844 813.297L652.021 644.422L707.448 639.766L672.271 808.604Z" fill="#FFBD59" stroke="#122032" stroke-width="8"/>
<path d="M779.25 654.406L763.823 728.286L798.526 725.354L813.953 651.5L779.25 654.406ZM838.531 794.552L783.115 799.234L794.193 746.391L759.495 749.318L748.411 802.172L692.984 806.859L722.63 664.453C724.385 656.458 728.167 649.849 733.953 644.63C739.734 639.427 746.474 636.49 754.193 635.849L847.682 627.995C855.552 627.333 861.385 629.208 865.151 633.615C868.932 638.021 869.943 644.229 868.167 652.224L838.531 794.552Z" fill="#FFBD59" stroke="#122032" stroke-width="8"/>
<path d="M212.266 1061.09L156.839 1065.84L140.932 962.885L118.771 1069.1L63.3438 1073.85L98.526 904.583L153.953 899.865L169.854 1003.06L192.021 896.63L247.448 891.911L212.266 1061.09Z" fill="#FFBD59" stroke="#122032" stroke-width="8"/>
<path d="M288.161 1054.58L232.745 1059.33L267.927 890.177L323.354 885.464L288.161 1054.58Z" fill="#FFBD59" stroke="#122032" stroke-width="8"/>
<path d="M334.917 1050.58C327.036 1051.27 321.214 1049.39 317.448 1044.97C313.667 1040.56 312.667 1034.35 314.432 1026.33L338.521 910.172C340.292 902.156 344.068 895.531 349.849 890.307C355.641 885.078 362.391 882.141 370.094 881.479L463.589 873.531C471.453 872.87 477.286 874.708 481.057 879.063C484.833 883.417 485.839 889.583 484.068 897.537L479.49 920.302L424.073 925.021L429.854 897.099L395.151 900.057L368.646 1026.99L403.349 1024.02L410.823 988.724L389.854 990.521L394.193 969.453L470.583 962.927L459.979 1013.88C458.214 1021.89 454.432 1028.52 448.656 1033.74C442.865 1038.97 436.125 1041.91 428.406 1042.57L334.917 1050.58Z" fill="#FFBD59" stroke="#122032" stroke-width="8"/>
<path d="M620.693 1026.1L565.276 1030.84L576.359 977.948L541.667 980.906L530.578 1033.82L475.161 1038.56L510.339 869.557L565.755 864.844L546 959.854L580.693 956.891L600.458 861.896L655.885 857.177L620.693 1026.1Z" fill="#FFBD59" stroke="#122032" stroke-width="8"/>
<path d="M807.214 864.979L765.76 868.505L734.911 1016.31L679.495 1021.05L710.333 873.219L668.896 876.755L673.229 855.708L811.547 843.948L807.214 864.979Z" fill="#FFBD59" stroke="#122032" stroke-width="8"/>
</svg>
